# Blender v2.93.2 OBJ File: ''
# www.blender.org
mtllib building-9.mtl
o Highrise_10
v -82.103088 40.276703 -77.948753
v -82.103088 466.542419 -77.948685
v 80.355530 466.542419 -77.948685
v 80.355530 40.276703 -77.948753
v 80.771271 40.276703 -77.533012
v 80.771271 466.542419 -77.532944
v 80.771271 466.542389 50.778187
v 80.771271 40.276703 50.778114
v 80.355530 40.276703 51.193840
v 80.355530 466.542389 51.193913
v -82.103088 466.542389 51.193913
v -82.103088 40.276703 51.193840
v -82.518829 40.276703 50.778114
v -82.518829 466.542389 50.778187
v -82.518829 466.542419 -77.532944
v -82.518829 40.276703 -77.533012
v -94.852463 478.044525 62.894352
v -93.605240 478.044525 62.280323
v 91.857697 478.044525 62.280323
v 93.104889 478.044525 62.894352
v -94.852463 0.062561 62.894276
v -94.852463 0.062561 -89.649200
v 93.104889 0.062561 -89.649200
v 93.104889 0.062561 62.894276
v -94.852463 506.756531 -89.649117
v -80.440125 506.756531 -82.553604
v 78.692596 506.756531 -82.553604
v 93.104889 506.756531 -89.649117
v 78.692596 506.756531 55.798851
v 93.104889 506.756531 62.894356
v -80.440125 506.756531 55.798851
v -94.852463 506.756531 62.894356
v -80.440125 491.544861 -82.553604
v 78.692596 491.544861 -82.553604
v 78.692596 491.544861 55.798851
v -80.440125 491.544861 55.798851
v -58.544495 491.544861 11.374511
v 56.796936 491.544861 11.374511
v 56.796936 491.544861 49.779427
v -58.544495 491.544861 49.779427
v -58.544495 535.468506 11.374517
v 56.796936 535.468506 11.374517
v 65.111755 496.678802 13.216614
v 65.111755 530.334595 13.216619
v 65.111755 530.334595 47.937328
v 65.111755 496.678772 47.937325
v 56.796936 535.468506 49.779434
v -58.544495 535.468506 49.779434
v 56.796936 496.678802 13.216614
v 56.796936 496.678772 47.937325
v 56.796936 530.334595 47.937328
v 56.796936 530.334595 13.216619
v -52.045044 535.468506 24.746824
v -18.744202 535.468506 24.746824
v -18.744202 535.468506 36.407127
v -52.045044 535.468506 36.407127
v -52.045044 554.102783 24.746828
v -18.744202 554.102783 24.746828
v -18.744202 554.102783 36.407127
v -52.045044 554.102783 36.407127
v -41.790131 554.102783 29.795557
v -28.999115 554.102783 29.795557
v -28.999115 554.102783 31.358400
v -41.790131 554.102783 31.358400
v 91.857697 478.044556 -89.035080
v 93.104889 478.044556 -89.649117
v -94.852463 28.774567 62.894279
v -93.605240 28.774567 62.280251
v -93.605240 28.774567 -89.035156
v -94.852463 28.774567 -89.649193
v -94.852463 478.044556 -89.649117
v -93.605240 478.044556 -89.035080
v 93.104889 28.774567 62.894279
v 91.857697 28.774567 62.280251
v -93.605240 40.276703 50.778114
v -93.605240 40.276703 -77.533012
v -93.605240 466.542419 -77.532944
v -93.605240 466.542389 50.778187
v 93.104889 28.774567 -89.649193
v 91.857697 28.774567 -89.035156
v -82.103088 40.276703 -89.035156
v 80.355530 40.276703 -89.035156
v 80.355530 466.542419 -89.035088
v -82.103088 466.542419 -89.035088
v 91.857697 40.276703 -77.533012
v 91.857697 40.276703 50.778114
v 91.857697 466.542389 50.778187
v 91.857697 466.542419 -77.532944
v 80.355530 40.276703 62.280251
v -82.103088 40.276703 62.280251
v -82.103088 466.542389 62.280323
v 80.355530 466.542389 62.280323
vt 0.073128 0.073129
vt 0.073128 0.926872
vt 0.926872 0.926872
vt 0.926872 0.073129
vt 0.061948 0.061948
vt 0.061948 0.938052
vt 0.938052 0.938052
vt 0.938052 0.061948
vt 0.073128 0.073129
vt 0.073128 0.926872
vt 0.926872 0.926872
vt 0.926872 0.073129
vt 0.061948 0.061948
vt 0.061948 0.938052
vt 0.938052 0.938052
vt 0.938052 0.061948
vt 0.954994 0.954994
vt 0.954994 0.954994
vt 0.045006 0.954994
vt 0.045006 0.954994
vt 0.000000 0.000000
vt 0.000000 1.000000
vt 1.000000 1.000000
vt 1.000000 0.000000
vt 0.000000 0.000000
vt 0.054629 0.054629
vt 0.945371 0.054629
vt 1.000000 0.000000
vt 0.945371 0.945371
vt 1.000000 1.000000
vt 0.054629 0.945371
vt 0.000000 1.000000
vt 0.054629 0.054629
vt 0.945371 0.054629
vt 0.945371 0.945371
vt 0.054629 0.945371
vt 0.136938 0.136938
vt 0.863062 0.136938
vt 0.863062 0.863062
vt 0.136938 0.863062
vt 0.136938 0.136938
vt 0.863062 0.136938
vt 0.863062 0.178979
vt 0.863062 0.178979
vt 0.863062 0.821021
vt 0.863062 0.821021
vt 0.863062 0.863062
vt 0.136938 0.863062
vt 0.863062 0.178979
vt 0.863062 0.821021
vt 0.863062 0.821021
vt 0.863062 0.178979
vt 0.333617 0.333617
vt 0.666383 0.333617
vt 0.666383 0.666383
vt 0.333617 0.666383
vt 0.333617 0.333617
vt 0.666383 0.333617
vt 0.666383 0.666383
vt 0.333617 0.666383
vt 0.450068 0.450068
vt 0.549932 0.450068
vt 0.549932 0.549932
vt 0.450068 0.549932
vt 0.966746 0.966746
vt 0.966746 0.966746
vt 0.033254 0.966746
vt 0.033254 0.966746
vt 0.033254 0.033255
vt 0.033254 0.033255
vt 0.966746 0.033255
vt 0.966746 0.033255
vt 0.966746 0.966746
vt 0.966746 0.966746
vt 0.033254 0.966746
vt 0.033254 0.966746
vt 0.045006 0.045006
vt 0.045006 0.045006
vt 0.954994 0.045006
vt 0.954994 0.045006
vt 0.061948 0.061948
vt 0.938052 0.061948
vt 0.938052 0.938052
vt 0.061948 0.938052
vt 0.000000 0.000000
vt 0.045006 0.045006
vt 0.954994 0.045006
vt 1.000000 0.000000
vt 1.000000 1.000000
vt 0.954994 0.954994
vt 0.045006 0.954994
vt 0.000000 1.000000
vt 0.000000 0.000000
vt 0.033254 0.033255
vt 0.966746 0.033255
vt 0.000000 1.000000
vt 0.000000 0.000000
vt 1.000000 0.000000
vt 1.000000 1.000000
vt 0.000000 1.000000
vt 1.000000 0.000000
vt 1.000000 1.000000
vt 0.045006 0.045006
vt 0.954994 0.045006
vt 0.954994 0.954994
vt 0.045006 0.954994
vt 0.033254 0.033255
vt 0.966746 0.033255
vt 0.000000 1.000000
vt 1.000000 1.000000
vt 1.000000 0.000000
vt 0.000000 0.000000
vt 0.073128 0.073129
vt 0.926872 0.073129
vt 0.926872 0.926872
vt 0.073128 0.926872
vt 0.061948 0.061948
vt 0.938052 0.061948
vt 0.938052 0.938052
vt 0.061948 0.938052
vt 0.073128 0.073129
vt 0.926872 0.073129
vt 0.926872 0.926872
vt 0.073128 0.926872
vn 0.0000 0.0000 -1.0000
vn 1.0000 -0.0000 0.0000
vn 0.0000 -0.0000 1.0000
vn -1.0000 0.0000 0.0000
vn 0.0000 -1.0000 0.0000
vn 0.0000 1.0000 0.0000
vn 0.0000 -1.0000 -0.0001
usemtl default
s off
f 1/1/1 2/2/1 3/3/1 4/4/1
f 5/5/2 6/6/2 7/7/2 8/8/2
f 9/9/3 10/10/3 11/11/3 12/12/3
f 13/13/4 14/14/4 15/15/4 16/16/4
f 17/17/5 18/18/5 19/19/5 20/20/5
f 21/21/5 22/22/5 23/23/5 24/24/5
f 25/25/6 26/26/6 27/27/6 28/28/6
f 28/28/6 27/27/6 29/29/6 30/30/6
f 30/30/6 29/29/6 31/31/6 32/32/6
f 32/32/6 31/31/6 26/26/6 25/25/6
f 26/26/3 33/33/3 34/34/3 27/27/3
f 27/27/4 34/34/4 35/35/4 29/29/4
f 29/29/1 35/35/1 36/36/1 31/31/1
f 31/31/2 36/36/2 33/33/2 26/26/2
f 33/33/6 37/37/6 38/38/6 34/34/6
f 34/34/6 38/38/6 39/39/6 35/35/6
f 35/35/6 39/39/6 40/40/6 36/36/6
f 36/36/6 40/40/6 37/37/6 33/33/6
f 37/37/1 41/41/1 42/42/1 38/38/1
f 43/43/2 44/44/2 45/45/2 46/46/2
f 39/39/3 47/47/3 48/48/3 40/40/3
f 40/40/4 48/48/4 41/41/4 37/37/4
f 38/38/2 49/49/2 50/50/2 39/39/2
f 39/39/2 50/50/2 51/51/2 47/47/2
f 47/47/2 51/51/2 52/52/2 42/42/2
f 42/42/2 52/52/2 49/49/2 38/38/2
f 49/49/5 43/43/5 46/46/5 50/50/5
f 50/50/3 46/46/3 45/45/3 51/51/3
f 51/51/6 45/45/6 44/44/6 52/52/6
f 52/52/1 44/44/1 43/43/1 49/49/1
f 41/41/6 53/53/6 54/54/6 42/42/6
f 42/42/6 54/54/6 55/55/6 47/47/6
f 47/47/6 55/55/6 56/56/6 48/48/6
f 48/48/6 56/56/6 53/53/6 41/41/6
f 53/53/1 57/57/1 58/58/1 54/54/1
f 54/54/2 58/58/2 59/59/2 55/55/2
f 55/55/3 59/59/3 60/60/3 56/56/3
f 56/56/4 60/60/4 57/57/4 53/53/4
f 57/57/6 61/61/6 62/62/6 58/58/6
f 58/58/6 62/62/6 63/63/6 59/59/6
f 59/59/6 63/63/6 64/64/6 60/60/6
f 60/60/6 64/64/6 61/61/6 57/57/6
f 20/65/5 19/66/5 65/67/5 66/68/5
f 67/69/6 68/70/6 69/71/6 70/72/6
f 71/73/5 72/74/5 18/75/5 17/76/5
f 73/77/6 74/78/6 68/79/6 67/80/6
f 75/81/6 13/13/6 16/16/6 76/82/6
f 76/82/3 16/16/3 15/15/3 77/83/3
f 77/83/5 15/15/5 14/14/5 78/84/5
f 78/84/1 14/14/1 13/13/1 75/81/1
f 22/85/1 70/86/1 79/87/1 23/88/1
f 28/89/1 66/90/1 71/91/1 25/92/1
f 23/93/2 79/94/2 73/95/2 24/24/2
f 30/30/2 20/65/2 66/68/2 28/96/2
f 24/97/3 73/77/3 67/80/3 21/98/3
f 32/99/3 17/17/3 20/20/3 30/100/3
f 21/21/4 67/69/4 70/72/4 22/101/4
f 25/102/4 71/73/4 17/76/4 32/32/4
f 70/86/6 69/103/6 80/104/6 79/87/6
f 66/90/7 65/105/7 72/106/7 71/91/7
f 79/94/6 80/107/6 74/108/6 73/95/6
f 61/109/6 64/110/6 63/111/6 62/112/6
f 69/103/1 81/113/1 82/114/1 80/104/1
f 80/104/1 82/114/1 83/115/1 65/105/1
f 65/105/1 83/115/1 84/116/1 72/106/1
f 72/106/1 84/116/1 81/113/1 69/103/1
f 80/107/2 85/117/2 86/118/2 74/108/2
f 74/108/2 86/118/2 87/119/2 19/66/2
f 19/66/2 87/119/2 88/120/2 65/67/2
f 65/67/2 88/120/2 85/117/2 80/107/2
f 74/78/3 89/121/3 90/122/3 68/79/3
f 68/79/3 90/122/3 91/123/3 18/18/3
f 18/18/3 91/123/3 92/124/3 19/19/3
f 19/19/3 92/124/3 89/121/3 74/78/3
f 68/70/4 75/81/4 76/82/4 69/71/4
f 69/71/4 76/82/4 77/83/4 72/74/4
f 72/74/4 77/83/4 78/84/4 18/75/4
f 18/75/4 78/84/4 75/81/4 68/70/4
f 81/113/6 1/1/6 4/4/6 82/114/6
f 82/114/4 4/4/4 3/3/4 83/115/4
f 83/115/5 3/3/5 2/2/5 84/116/5
f 84/116/2 2/2/2 1/1/2 81/113/2
f 85/117/6 5/5/6 8/8/6 86/118/6
f 86/118/1 8/8/1 7/7/1 87/119/1
f 87/119/5 7/7/5 6/6/5 88/120/5
f 88/120/3 6/6/3 5/5/3 85/117/3
f 89/121/6 9/9/6 12/12/6 90/122/6
f 90/122/2 12/12/2 11/11/2 91/123/2
f 91/123/5 11/11/5 10/10/5 92/124/5
f 92/124/4 10/10/4 9/9/4 89/121/4
