# Blender v2.93.2 OBJ File: ''
# www.blender.org
mtllib building-7.mtl
o Highrise_1
v -63.428162 20.901215 -59.244675
v -63.428162 382.699188 -59.244614
v 72.971863 382.699188 -59.244614
v 72.971863 20.901215 -59.244675
v 72.971863 382.699188 77.155380
v 72.971863 20.901215 77.155327
v -63.428162 382.699188 77.155380
v -63.428162 20.901215 77.155327
v -22.271240 500.799194 -15.588167
v -22.271240 500.799194 -9.998568
v -8.744080 500.799194 -9.998568
v -8.744080 500.799194 -15.588167
v -63.428162 0.101196 77.155319
v -63.428162 0.101196 -59.244678
v 72.971863 0.101196 -59.244678
v 72.971863 0.101196 77.155319
v 68.071838 398.799194 -54.344616
v 68.071838 387.399170 -54.344616
v -58.528137 387.399170 -54.344616
v -58.528137 398.799194 -54.344616
v 68.071838 398.799194 72.255394
v 68.071838 387.399170 72.255386
v -58.528137 398.799194 72.255394
v -58.528137 387.399170 72.255386
v -63.428162 403.499176 -59.244614
v -53.028137 403.499176 -48.844616
v 62.571838 403.499176 -48.844616
v 72.971863 403.499176 -59.244614
v 62.571838 403.499176 66.755386
v 72.971863 403.499176 77.155388
v -53.028137 403.499176 66.755386
v -63.428162 403.499176 77.155388
v -53.028137 415.599182 -48.844612
v 62.571838 415.599182 -48.844612
v 62.571838 415.599182 66.755386
v -53.028137 415.599182 66.755386
v 72.971863 398.799194 -59.244614
v -63.428162 398.799194 -59.244614
v -63.428162 387.399170 -59.244614
v 72.971863 387.399170 -59.244614
v 72.971863 398.799194 77.155388
v 72.971863 387.399170 77.155380
v -63.428162 398.799194 77.155388
v -63.428162 387.399170 77.155380
v -40.938904 415.599182 -41.193378
v 50.482605 415.599182 -41.193378
v 50.482605 415.599182 15.606621
v -40.938904 415.599182 15.606621
v -40.938904 429.799194 -41.193375
v 50.482605 429.799194 -41.193375
v 50.482605 429.799194 15.606623
v -40.938904 429.799194 15.606623
v -38.516235 432.899170 -39.688175
v 48.059937 432.899170 -39.688175
v 48.059937 432.899170 14.101420
v -38.516235 432.899170 14.101420
v -26.571289 432.899170 -19.888178
v -4.444031 432.899170 -19.888178
v -4.444031 432.899170 -5.698575
v -26.571289 432.899170 -5.698575
v -26.571289 447.899170 -19.888174
v -4.444031 447.899170 -19.888174
v -4.444031 447.899170 -5.698573
v -26.571289 447.899170 -5.698573
v -22.271240 447.899170 -15.588176
v -8.744080 447.899170 -15.588176
v -8.744080 447.899170 -9.998576
v -22.271240 447.899170 -9.998576
vt 0.046272 0.046272
vt 0.046272 0.953728
vt 0.953728 0.953728
vt 0.953728 0.046272
vt 0.046272 0.046272
vt 0.046272 0.953728
vt 0.953728 0.953728
vt 0.953728 0.046272
vt 0.046272 0.046272
vt 0.046272 0.953728
vt 0.953728 0.953728
vt 0.953728 0.046272
vt 0.046272 0.046272
vt 0.046272 0.953728
vt 0.953728 0.953728
vt 0.953728 0.046272
vt 0.446951 0.446951
vt 0.446951 0.553049
vt 0.553049 0.553049
vt 0.553049 0.446951
vt 0.000000 0.000000
vt 0.000000 1.000000
vt 1.000000 1.000000
vt 1.000000 0.000000
vt 0.000000 0.000000
vt 1.000000 0.000000
vt 0.994865 0.999762
vt 0.949068 0.953966
vt 0.050932 0.953966
vt 0.005135 0.999762
vt 0.000000 0.000000
vt 0.994865 0.999762
vt 0.949068 0.953966
vt 0.050932 0.953966
vt 0.005135 0.999762
vt 0.000000 0.000000
vt 1.000000 0.000000
vt 0.994865 0.999762
vt 0.949068 0.953966
vt 0.050932 0.953966
vt 0.005135 0.999762
vt 1.000000 0.000000
vt 0.994865 0.999762
vt 0.949068 0.953966
vt 0.050932 0.953966
vt 0.005135 0.999762
vt 0.000000 0.000000
vt 0.076246 0.076246
vt 0.923754 0.076246
vt 1.000000 0.000000
vt 0.923754 0.923754
vt 1.000000 1.000000
vt 0.076246 0.923754
vt 0.000000 1.000000
vt 0.076246 0.076246
vt 0.923754 0.076246
vt 0.923754 0.923754
vt 0.076246 0.923754
vt 1.000000 1.000000
vt 0.994865 0.999762
vt 0.005135 0.999762
vt 0.000000 1.000000
vt 0.050932 0.953966
vt 0.949068 0.953966
vt 0.994865 0.999762
vt 0.005135 0.999762
vt 0.000000 1.000000
vt 0.050932 0.953966
vt 0.949068 0.953966
vt 1.000000 1.000000
vt 0.994865 0.999762
vt 0.005135 0.999762
vt 0.000000 1.000000
vt 0.050932 0.953966
vt 0.949068 0.953966
vt 1.000000 1.000000
vt 0.994865 0.999762
vt 0.005135 0.999762
vt 0.050932 0.953966
vt 0.949068 0.953966
vt 0.291789 0.291789
vt 0.708211 0.291789
vt 0.708211 0.708211
vt 0.291789 0.708211
vt 0.291789 0.291789
vt 0.708211 0.291789
vt 0.708211 0.708211
vt 0.291789 0.708211
vt 0.291789 0.291789
vt 0.708211 0.291789
vt 0.708211 0.708211
vt 0.291789 0.708211
vt 0.403192 0.403192
vt 0.596808 0.403192
vt 0.596808 0.596808
vt 0.403192 0.596808
vt 0.403192 0.403192
vt 0.596808 0.403192
vt 0.596808 0.596808
vt 0.403192 0.596808
vt 0.446951 0.446951
vt 0.553049 0.446951
vt 0.553049 0.553049
vt 0.446951 0.553049
vn 0.0000 0.0000 -1.0000
vn 1.0000 -0.0000 0.0000
vn 0.0000 -0.0000 1.0000
vn -1.0000 -0.0000 0.0000
vn 0.0000 1.0000 0.0000
vn 0.0000 -1.0000 0.0000
vn 0.0000 0.4368 -0.8996
vn 0.7879 0.6158 0.0000
vn 0.0000 0.4368 0.8996
vn -0.7879 0.6158 0.0000
usemtl default
s off
f 1/1/1 2/2/1 3/3/1 4/4/1
f 4/5/2 3/6/2 5/7/2 6/8/2
f 6/9/3 5/10/3 7/11/3 8/12/3
f 8/13/4 7/14/4 2/15/4 1/16/4
f 9/17/5 10/18/5 11/19/5 12/20/5
f 13/21/6 14/22/6 15/23/6 16/24/6
f 14/25/1 1/1/1 4/4/1 15/26/1
f 17/27/1 18/28/1 19/29/1 20/30/1
f 15/31/2 4/5/2 6/8/2 16/24/2
f 21/32/2 22/33/2 18/34/2 17/35/2
f 16/36/3 6/9/3 8/12/3 13/37/3
f 23/38/3 24/39/3 22/40/3 21/41/3
f 13/21/4 8/13/4 1/16/4 14/42/4
f 20/43/4 19/44/4 24/45/4 23/46/4
f 25/47/5 26/48/5 27/49/5 28/50/5
f 28/50/5 27/49/5 29/51/5 30/52/5
f 30/52/5 29/51/5 31/53/5 32/54/5
f 32/54/5 31/53/5 26/48/5 25/47/5
f 26/48/1 33/55/1 34/56/1 27/49/1
f 27/49/2 34/56/2 35/57/2 29/51/2
f 29/51/3 35/57/3 36/58/3 31/53/3
f 31/53/4 36/58/4 33/55/4 26/48/4
f 28/59/1 37/60/1 38/61/1 25/62/1
f 2/2/1 39/63/1 40/64/1 3/3/1
f 30/52/2 41/65/2 37/66/2 28/67/2
f 3/6/2 40/68/2 42/69/2 5/7/2
f 32/70/3 43/71/3 41/72/3 30/73/3
f 5/10/3 42/74/3 44/75/3 7/11/3
f 25/76/4 38/77/4 43/78/4 32/54/4
f 7/14/4 44/79/4 39/80/4 2/15/4
f 37/60/6 17/27/6 20/30/6 38/61/6
f 39/63/5 19/29/5 18/28/5 40/64/5
f 41/65/6 21/32/6 17/35/6 37/66/6
f 40/68/5 18/34/5 22/33/5 42/69/5
f 43/71/6 23/38/6 21/41/6 41/72/6
f 42/74/5 22/40/5 24/39/5 44/75/5
f 38/77/6 20/43/6 23/46/6 43/78/6
f 44/79/5 24/45/5 19/44/5 39/80/5
f 33/55/5 45/81/5 46/82/5 34/56/5
f 34/56/5 46/82/5 47/83/5 35/57/5
f 35/57/5 47/83/5 48/84/5 36/58/5
f 36/58/5 48/84/5 45/81/5 33/55/5
f 45/81/1 49/85/1 50/86/1 46/82/1
f 46/82/2 50/86/2 51/87/2 47/83/2
f 47/83/3 51/87/3 52/88/3 48/84/3
f 48/84/4 52/88/4 49/85/4 45/81/4
f 49/85/7 53/89/7 54/90/7 50/86/7
f 50/86/8 54/90/8 55/91/8 51/87/8
f 51/87/9 55/91/9 56/92/9 52/88/9
f 52/88/10 56/92/10 53/89/10 49/85/10
f 53/89/5 57/93/5 58/94/5 54/90/5
f 54/90/5 58/94/5 59/95/5 55/91/5
f 55/91/5 59/95/5 60/96/5 56/92/5
f 56/92/5 60/96/5 57/93/5 53/89/5
f 57/93/1 61/97/1 62/98/1 58/94/1
f 58/94/2 62/98/2 63/99/2 59/95/2
f 59/95/3 63/99/3 64/100/3 60/96/3
f 60/96/4 64/100/4 61/97/4 57/93/4
f 61/97/5 65/101/5 66/102/5 62/98/5
f 62/98/5 66/102/5 67/103/5 63/99/5
f 63/99/5 67/103/5 68/104/5 64/100/5
f 64/100/5 68/104/5 65/101/5 61/97/5
f 65/101/1 9/17/1 12/20/1 66/102/1
f 66/102/2 12/20/2 11/19/2 67/103/2
f 67/103/3 11/19/3 10/18/3 68/104/3
f 68/104/4 10/18/4 9/17/4 65/101/4
