# Blender v2.93.2 OBJ File: ''
# www.blender.org
mtllib building-15.mtl
o Highrise_16
v -75.397766 94.960999 74.999908
v -75.397766 526.029663 74.999947
v -75.397766 526.029663 37.499954
v -75.397766 94.960999 37.499908
v -75.397766 526.029663 -0.000045
v -75.397766 94.960999 -0.000092
v -75.397766 526.029663 -37.500050
v -75.397766 94.960999 -37.500092
v -75.397766 526.029663 -75.000046
v -75.397766 94.960999 -75.000092
v -37.897766 526.029663 -75.000046
v -37.897766 94.960999 -75.000092
v -0.397766 526.029663 -75.000053
v -0.397766 94.960999 -75.000092
v 37.102234 526.029663 -75.000053
v 37.102234 94.960999 -75.000099
v 74.602234 526.029663 -75.000053
v 74.602234 94.960999 -75.000099
v 74.602234 526.029663 -37.500053
v 74.602234 94.960999 -37.500099
v 74.602234 526.029663 -0.000052
v 74.602234 94.960999 -0.000100
v 74.602234 526.029663 37.499947
v 74.602234 94.960999 37.499901
v 74.602234 526.029663 74.999947
v 74.602234 94.960999 74.999908
v 37.102234 526.029663 74.999947
v 37.102234 94.960999 74.999908
v -0.397766 526.029663 74.999947
v -0.397766 94.960999 74.999908
v -37.897766 526.029663 74.999947
v -37.897766 94.960999 74.999908
v -69.742004 655.835327 71.624969
v -33.956970 641.112488 71.624969
v -33.956970 641.112549 35.812466
v -69.742004 655.835327 35.812469
v -33.956970 641.112549 -0.000034
v -69.742004 655.835327 -0.000031
v -33.956970 641.112549 -35.812538
v -69.742004 655.835327 -35.812534
v -33.956970 641.112549 -71.625031
v -69.742004 655.835388 -71.625031
v 1.828064 626.389648 71.624962
v 1.828064 626.389648 35.812458
v 1.828064 626.389648 -0.000044
v 1.828003 626.389648 -35.812538
v 1.828003 626.389709 -71.625046
v 37.613037 611.666809 71.624962
v 37.613037 611.666870 35.812454
v 37.613037 611.666870 -0.000046
v 37.613037 611.666870 -35.812542
v 37.613037 611.666870 -71.625046
v 73.398071 596.943970 71.624962
v 73.398071 596.943970 35.812450
v 73.398071 596.943970 -0.000049
v 73.398071 596.943970 -35.812546
v 73.398071 596.944031 -71.625046
v 74.602234 0.010986 74.999893
v 37.102234 0.010986 74.999893
v 37.102234 0.010986 37.499893
v 74.602234 0.010986 37.499893
v 37.102234 0.010986 -0.000108
v 74.602234 0.010986 -0.000108
v 37.102234 0.010986 -37.500107
v 74.602234 0.010986 -37.500107
v 37.102234 0.010986 -75.000107
v 74.602234 0.010986 -75.000107
v -0.397766 0.010986 74.999893
v -0.397766 0.010986 37.499893
v -0.397766 0.010986 -0.000108
v -0.397766 0.010986 -37.500103
v -0.397766 0.010986 -75.000107
v -37.897766 0.010986 74.999893
v -37.897766 0.010986 37.499901
v -37.897766 0.010986 -0.000100
v -37.897766 0.010986 -37.500103
v -37.897766 0.010986 -75.000099
v -75.397766 0.010986 74.999893
v -75.397766 0.010986 37.499901
v -75.397766 0.010986 -0.000100
v -75.397766 0.010986 -37.500099
v -75.397766 0.010986 -75.000099
v -75.397766 82.510986 74.999908
v -75.397766 82.510986 37.499905
v -75.340210 651.812866 37.499969
v -75.397766 538.479614 37.499958
v -75.397766 538.479614 74.999947
v -75.340210 651.812805 74.999969
v -75.397766 82.510986 -0.000094
v -75.340210 651.812866 -0.000032
v -75.397766 538.479614 -0.000043
v -75.397766 82.510986 -37.500095
v -75.340210 651.812866 -37.500034
v -75.397766 538.479675 -37.500046
v -75.397766 82.510986 -75.000092
v -75.340210 651.812866 -75.000031
v -75.397766 538.479675 -75.000046
v -37.897766 82.510986 -75.000092
v -37.869019 636.396301 -75.000038
v -37.897766 538.479675 -75.000053
v -0.397766 82.510986 -75.000092
v -0.397766 620.979675 -75.000046
v -0.397766 538.479675 -75.000053
v 37.102234 82.510986 -75.000099
v 37.073425 605.563110 -75.000046
v 37.102234 538.479675 -75.000053
v 74.602234 82.510986 -75.000099
v 74.544617 590.146484 -75.000053
v 74.602234 538.479675 -75.000053
v 74.602234 82.510986 -37.500099
v 74.544678 590.146484 -37.500046
v 74.602234 538.479675 -37.500050
v 74.602234 82.510986 -0.000102
v 74.544678 590.146484 -0.000050
v 74.602234 538.479614 -0.000050
v 74.602234 82.510986 37.499897
v 74.544678 590.146484 37.499950
v 74.602234 538.479614 37.499950
v 74.602234 82.510986 74.999908
v 74.544678 590.146423 74.999954
v 74.602234 538.479614 74.999947
v 37.102234 82.510986 74.999908
v 37.073425 605.563049 74.999962
v 37.102234 538.479614 74.999947
v -0.397766 82.510986 74.999908
v -0.397766 620.979614 74.999962
v -0.397766 538.479614 74.999947
v -37.897766 82.510986 74.999908
v -37.869019 636.396240 74.999962
v -37.897766 538.479614 74.999947
v -60.322754 538.479614 37.499958
v -60.322754 526.029663 37.499954
v -60.322754 526.029663 59.924950
v -60.322754 538.479614 59.924953
v -60.322754 538.479614 -0.000043
v -60.322754 526.029663 -0.000045
v -60.322754 538.479675 -37.500046
v -60.322754 526.029663 -37.500050
v -60.322754 538.479675 -59.925045
v -60.322754 526.029663 -59.925049
v -37.897766 538.479675 -59.925045
v -37.897766 526.029663 -59.925049
v -0.397766 538.479675 -59.925049
v -0.397766 526.029663 -59.925049
v 37.102234 538.479675 -59.925053
v 37.102234 526.029663 -59.925053
v 59.527222 538.479675 -59.925053
v 59.527222 526.029663 -59.925056
v 59.527222 538.479675 -37.500050
v 59.527222 526.029663 -37.500053
v 59.527222 538.479614 -0.000050
v 59.527222 526.029663 -0.000052
v 59.527222 538.479614 37.499950
v 59.527222 526.029663 37.499947
v 59.527222 538.479614 59.924953
v 59.527222 526.029663 59.924950
v 37.102234 538.479614 59.924953
v 37.102234 526.029663 59.924950
v -0.397766 538.479614 59.924953
v -0.397766 526.029663 59.924950
v -37.897766 538.479614 59.924953
v -37.897766 526.029663 59.924950
v -60.247803 538.479614 37.499958
v -60.247803 538.479614 59.849957
v -60.247803 526.029663 59.849953
v -60.247803 526.029663 37.499954
v -60.247803 538.479614 -0.000043
v -60.247803 526.029663 -0.000045
v -60.247803 538.479675 -37.500046
v -60.247803 526.029663 -37.500050
v -60.247803 538.479675 -59.850048
v -60.247803 526.029663 -59.850048
v -37.897766 538.479675 -59.850048
v -37.897766 526.029663 -59.850052
v -0.397766 538.479675 -59.850048
v -0.397766 526.029663 -59.850052
v 37.102234 538.479675 -59.850048
v 37.102234 526.029663 -59.850052
v 59.452209 538.479675 -59.850048
v 59.452209 526.029663 -59.850052
v 59.452209 538.479675 -37.500050
v 59.452209 526.029663 -37.500053
v 59.452209 538.479614 -0.000050
v 59.452209 526.029663 -0.000052
v 59.452209 538.479614 37.499950
v 59.452209 526.029663 37.499947
v 59.452209 538.479614 59.849957
v 59.452209 526.029663 59.849953
v 37.102234 538.479614 59.849957
v 37.102234 526.029663 59.849953
v -0.397766 538.479614 59.849957
v -0.397766 526.029663 59.849953
v -37.897766 538.479614 59.849957
v -37.897766 526.029663 59.849953
v -70.227112 654.656250 71.624969
v -70.227112 654.656250 35.812469
v -34.442078 639.933411 71.624969
v -70.227112 654.656250 -0.000031
v -70.227112 654.656250 -35.812534
v -70.227112 654.656311 -71.625031
v -34.442078 639.933411 -71.625031
v 1.342896 625.210571 71.624962
v 1.342896 625.210571 -71.625046
v 37.127930 610.487671 71.624962
v 37.127930 610.487732 -71.625046
v 72.912964 595.764893 35.812450
v 72.912964 595.764832 71.624962
v 72.912964 595.764893 -0.000049
v 72.912964 595.764893 -35.812546
v 72.912964 595.764893 -71.625046
vt 0.038079 0.152315
vt 0.038079 0.847685
vt 0.211921 0.847685
vt 0.211921 0.152315
vt 0.288079 0.152315
vt 0.288079 0.847685
vt 0.461921 0.847685
vt 0.461921 0.152315
vt 0.538079 0.152315
vt 0.538079 0.847685
vt 0.711921 0.847685
vt 0.711921 0.152315
vt 0.788079 0.152315
vt 0.788079 0.847685
vt 0.961921 0.847685
vt 0.961921 0.152315
vt 0.038079 0.152315
vt 0.038079 0.847685
vt 0.211921 0.847685
vt 0.211921 0.152315
vt 0.288079 0.152315
vt 0.288079 0.847685
vt 0.461921 0.847685
vt 0.461921 0.152315
vt 0.538079 0.152315
vt 0.538079 0.847685
vt 0.711921 0.847685
vt 0.711921 0.152315
vt 0.788079 0.152315
vt 0.788079 0.847685
vt 0.961921 0.847685
vt 0.961921 0.152315
vt 0.038079 0.152315
vt 0.038079 0.847685
vt 0.211921 0.847685
vt 0.211921 0.152315
vt 0.288079 0.152315
vt 0.288079 0.847685
vt 0.461921 0.847685
vt 0.461921 0.152315
vt 0.538079 0.152315
vt 0.538079 0.847685
vt 0.711921 0.847685
vt 0.711921 0.152315
vt 0.788079 0.152315
vt 0.788079 0.847685
vt 0.961921 0.847685
vt 0.961921 0.152315
vt 0.038079 0.152315
vt 0.038079 0.847685
vt 0.211921 0.847685
vt 0.211921 0.152315
vt 0.288079 0.152315
vt 0.288079 0.847685
vt 0.461921 0.847685
vt 0.461921 0.152315
vt 0.538079 0.152315
vt 0.538079 0.847685
vt 0.711921 0.847685
vt 0.711921 0.152315
vt 0.788079 0.152315
vt 0.788079 0.847685
vt 0.961921 0.847685
vt 0.961921 0.152315
vt 0.000000 0.000000
vt 0.000000 0.250000
vt 0.250000 0.250000
vt 0.250000 0.000000
vt 0.500000 0.250000
vt 0.500000 0.000000
vt 0.750000 0.250000
vt 0.750000 0.000000
vt 1.000000 0.250000
vt 1.000000 0.000000
vt 0.000000 0.500000
vt 0.250000 0.500000
vt 0.500000 0.500000
vt 0.750000 0.500000
vt 1.000000 0.500000
vt 0.000000 0.750000
vt 0.250000 0.750000
vt 0.500000 0.750000
vt 0.750000 0.750000
vt 1.000000 0.750000
vt 0.000000 1.000000
vt 0.250000 1.000000
vt 0.500000 1.000000
vt 0.750000 1.000000
vt 1.000000 1.000000
vt 0.000000 0.000000
vt 0.000000 0.250000
vt 0.250000 0.250000
vt 0.250000 0.000000
vt 0.500000 0.250000
vt 0.500000 0.000000
vt 0.750000 0.250000
vt 0.750000 0.000000
vt 1.000000 0.250000
vt 1.000000 0.000000
vt 0.000000 0.500000
vt 0.250000 0.500000
vt 0.500000 0.500000
vt 0.750000 0.500000
vt 1.000000 0.500000
vt 0.000000 0.750000
vt 0.250000 0.750000
vt 0.500000 0.750000
vt 0.750000 0.750000
vt 1.000000 0.750000
vt 0.000000 1.000000
vt 0.250000 1.000000
vt 0.500000 1.000000
vt 0.750000 1.000000
vt 1.000000 1.000000
vt 0.000000 0.000000
vt 0.033094 0.132374
vt 0.216906 0.132374
vt 0.250000 0.000000
vt 0.250000 1.000000
vt 0.216906 0.867626
vt 0.033094 0.867626
vt 0.000000 1.000000
vt 0.283094 0.132374
vt 0.466906 0.132374
vt 0.500000 0.000000
vt 0.500000 1.000000
vt 0.466906 0.867626
vt 0.283094 0.867626
vt 0.533094 0.132374
vt 0.716906 0.132374
vt 0.750000 0.000000
vt 0.750000 1.000000
vt 0.716906 0.867626
vt 0.533094 0.867626
vt 0.783094 0.132374
vt 0.966906 0.132374
vt 1.000000 0.000000
vt 1.000000 1.000000
vt 0.966906 0.867626
vt 0.783094 0.867626
vt 0.000000 0.000000
vt 0.033094 0.132374
vt 0.216906 0.132374
vt 0.250000 0.000000
vt 0.250000 1.000000
vt 0.216906 0.867626
vt 0.033094 0.867626
vt 0.000000 1.000000
vt 0.283094 0.132374
vt 0.466906 0.132374
vt 0.500000 0.000000
vt 0.500000 1.000000
vt 0.466906 0.867626
vt 0.283094 0.867626
vt 0.533094 0.132374
vt 0.716906 0.132374
vt 0.750000 0.000000
vt 0.750000 1.000000
vt 0.716906 0.867626
vt 0.533094 0.867626
vt 0.783094 0.132374
vt 0.966906 0.132374
vt 1.000000 1.000000
vt 0.966906 0.867626
vt 0.783094 0.867626
vt 0.000000 0.000000
vt 0.033094 0.132374
vt 0.216906 0.132374
vt 0.250000 0.000000
vt 0.250000 1.000000
vt 0.216906 0.867626
vt 0.033094 0.867626
vt 0.000000 1.000000
vt 0.283094 0.132374
vt 0.466906 0.132374
vt 0.500000 1.000000
vt 0.466906 0.867626
vt 0.283094 0.867626
vt 0.533094 0.132374
vt 0.716906 0.132374
vt 0.750000 0.000000
vt 0.750000 1.000000
vt 0.716906 0.867626
vt 0.533094 0.867626
vt 0.783094 0.132374
vt 0.966906 0.132374
vt 1.000000 0.000000
vt 1.000000 1.000000
vt 0.966906 0.867626
vt 0.783094 0.867626
vt 0.033094 0.132374
vt 0.216906 0.132374
vt 0.250000 0.000000
vt 0.250000 1.000000
vt 0.216906 0.867626
vt 0.033094 0.867626
vt 0.000000 1.000000
vt 0.283094 0.132374
vt 0.466906 0.132374
vt 0.500000 0.000000
vt 0.500000 1.000000
vt 0.466906 0.867626
vt 0.283094 0.867626
vt 0.533094 0.132374
vt 0.716906 0.132374
vt 0.750000 0.000000
vt 0.750000 1.000000
vt 0.716906 0.867626
vt 0.533094 0.867626
vt 0.783094 0.132374
vt 0.966906 0.132374
vt 1.000000 0.000000
vt 1.000000 1.000000
vt 0.966906 0.867626
vt 0.783094 0.867626
vt 0.216906 0.867626
vt 0.211921 0.847685
vt 0.038079 0.847685
vt 0.033094 0.867626
vt 0.466906 0.867626
vt 0.461921 0.847685
vt 0.288079 0.847685
vt 0.283094 0.867626
vt 0.716906 0.867626
vt 0.711921 0.847685
vt 0.538079 0.847685
vt 0.533094 0.867626
vt 0.966906 0.867626
vt 0.961921 0.847685
vt 0.788079 0.847685
vt 0.783094 0.867626
vt 0.216906 0.867626
vt 0.211921 0.847685
vt 0.038079 0.847685
vt 0.033094 0.867626
vt 0.466906 0.867626
vt 0.461921 0.847685
vt 0.288079 0.847685
vt 0.283094 0.867626
vt 0.716906 0.867626
vt 0.711921 0.847685
vt 0.538079 0.847685
vt 0.533094 0.867626
vt 0.966906 0.867626
vt 0.961921 0.847685
vt 0.788079 0.847685
vt 0.783094 0.867626
vt 0.216906 0.867626
vt 0.211921 0.847685
vt 0.038079 0.847685
vt 0.033094 0.867626
vt 0.466906 0.867626
vt 0.461921 0.847685
vt 0.288079 0.847685
vt 0.283094 0.867626
vt 0.716906 0.867626
vt 0.711921 0.847685
vt 0.538079 0.847685
vt 0.533094 0.867626
vt 0.966906 0.867626
vt 0.961921 0.847685
vt 0.788079 0.847685
vt 0.783094 0.867626
vt 0.216906 0.867626
vt 0.211921 0.847685
vt 0.038079 0.847685
vt 0.033094 0.867626
vt 0.466906 0.867626
vt 0.461921 0.847685
vt 0.288079 0.847685
vt 0.283094 0.867626
vt 0.716906 0.867626
vt 0.711921 0.847685
vt 0.538079 0.847685
vt 0.533094 0.867626
vt 0.966906 0.867626
vt 0.961921 0.847685
vt 0.788079 0.847685
vt 0.783094 0.867626
vt 0.216906 0.867626
vt 0.033094 0.867626
vt 0.038079 0.847685
vt 0.211921 0.847685
vt 0.466906 0.867626
vt 0.283094 0.867626
vt 0.288079 0.847685
vt 0.461921 0.847685
vt 0.716906 0.867626
vt 0.533094 0.867626
vt 0.538079 0.847685
vt 0.711921 0.847685
vt 0.966906 0.867626
vt 0.783094 0.867626
vt 0.788079 0.847685
vt 0.961921 0.847685
vt 0.216906 0.867626
vt 0.033094 0.867626
vt 0.038079 0.847685
vt 0.211921 0.847685
vt 0.466906 0.867626
vt 0.283094 0.867626
vt 0.288079 0.847685
vt 0.461921 0.847685
vt 0.716906 0.867626
vt 0.533094 0.867626
vt 0.538079 0.847685
vt 0.711921 0.847685
vt 0.966906 0.867626
vt 0.783094 0.867626
vt 0.788079 0.847685
vt 0.961921 0.847685
vt 0.216906 0.867626
vt 0.033094 0.867626
vt 0.038079 0.847685
vt 0.211921 0.847685
vt 0.466906 0.867626
vt 0.283094 0.867626
vt 0.288079 0.847685
vt 0.461921 0.847685
vt 0.716906 0.867626
vt 0.533094 0.867626
vt 0.538079 0.847685
vt 0.711921 0.847685
vt 0.966906 0.867626
vt 0.783094 0.867626
vt 0.788079 0.847685
vt 0.961921 0.847685
vt 0.216906 0.867626
vt 0.033094 0.867626
vt 0.038079 0.847685
vt 0.211921 0.847685
vt 0.466906 0.867626
vt 0.283094 0.867626
vt 0.288079 0.847685
vt 0.461921 0.847685
vt 0.716906 0.867626
vt 0.533094 0.867626
vt 0.538079 0.847685
vt 0.711921 0.847685
vt 0.966906 0.867626
vt 0.783094 0.867626
vt 0.788079 0.847685
vt 0.961921 0.847685
vt 0.000000 0.000000
vt 0.000000 0.000000
vt 0.250000 0.000000
vt 0.250000 0.000000
vt 0.000000 0.250000
vt 0.000000 0.250000
vt 0.500000 0.000000
vt 0.500000 0.000000
vt 0.750000 0.000000
vt 0.750000 0.000000
vt 1.000000 0.000000
vt 1.000000 0.000000
vt 1.000000 0.250000
vt 1.000000 0.250000
vt 0.000000 0.500000
vt 0.000000 0.500000
vt 1.000000 0.500000
vt 1.000000 0.500000
vt 0.000000 0.750000
vt 0.000000 0.750000
vt 1.000000 0.750000
vt 1.000000 0.750000
vt 0.250000 1.000000
vt 0.250000 1.000000
vt 0.000000 1.000000
vt 0.500000 1.000000
vt 0.750000 1.000000
vt 0.750000 1.000000
vt 1.000000 1.000000
vn -1.0000 -0.0000 0.0000
vn 0.0000 0.0000 -1.0000
vn 1.0000 -0.0000 0.0000
vn 0.0000 -0.0000 1.0000
vn 0.3805 0.9248 0.0000
vn 0.0000 -1.0000 0.0000
vn -1.0000 0.0005 0.0000
vn 1.0000 0.0011 -0.0000
vn 0.0000 1.0000 0.0000
vn 0.0000 1.0000 0.0004
vn 0.0000 -1.0000 -0.0002
vn 0.0000 -1.0000 0.0001
vn -0.4860 0.8740 0.0000
vn 0.2259 0.5490 0.8047
vn 0.2259 0.5490 -0.8047
vn 0.9603 0.2789 0.0000
vn -0.9248 0.3805 0.0000
vn 0.9248 -0.3805 -0.0000
usemtl default
s off
f 1/1/1 2/2/1 3/3/1 4/4/1
f 4/5/1 3/6/1 5/7/1 6/8/1
f 6/9/1 5/10/1 7/11/1 8/12/1
f 8/13/1 7/14/1 9/15/1 10/16/1
f 10/17/2 9/18/2 11/19/2 12/20/2
f 12/21/2 11/22/2 13/23/2 14/24/2
f 14/25/2 13/26/2 15/27/2 16/28/2
f 16/29/2 15/30/2 17/31/2 18/32/2
f 18/33/3 17/34/3 19/35/3 20/36/3
f 20/37/3 19/38/3 21/39/3 22/40/3
f 22/41/3 21/42/3 23/43/3 24/44/3
f 24/45/3 23/46/3 25/47/3 26/48/3
f 26/49/4 25/50/4 27/51/4 28/52/4
f 28/53/4 27/54/4 29/55/4 30/56/4
f 30/57/4 29/58/4 31/59/4 32/60/4
f 32/61/4 31/62/4 2/63/4 1/64/4
f 33/65/5 34/66/5 35/67/5 36/68/5
f 36/68/5 35/67/5 37/69/5 38/70/5
f 38/70/5 37/69/5 39/71/5 40/72/5
f 40/72/5 39/71/5 41/73/5 42/74/5
f 34/66/5 43/75/5 44/76/5 35/67/5
f 35/67/5 44/76/5 45/77/5 37/69/5
f 37/69/5 45/77/5 46/78/5 39/71/5
f 39/71/5 46/78/5 47/79/5 41/73/5
f 43/75/5 48/80/5 49/81/5 44/76/5
f 44/76/5 49/81/5 50/82/5 45/77/5
f 45/77/5 50/82/5 51/83/5 46/78/5
f 46/78/5 51/83/5 52/84/5 47/79/5
f 48/80/5 53/85/5 54/86/5 49/81/5
f 49/81/5 54/86/5 55/87/5 50/82/5
f 50/82/5 55/87/5 56/88/5 51/83/5
f 51/83/5 56/88/5 57/89/5 52/84/5
f 58/90/6 59/91/6 60/92/6 61/93/6
f 61/93/6 60/92/6 62/94/6 63/95/6
f 63/95/6 62/94/6 64/96/6 65/97/6
f 65/97/6 64/96/6 66/98/6 67/99/6
f 59/91/6 68/100/6 69/101/6 60/92/6
f 60/92/6 69/101/6 70/102/6 62/94/6
f 62/94/6 70/102/6 71/103/6 64/96/6
f 64/96/6 71/103/6 72/104/6 66/98/6
f 68/100/6 73/105/6 74/106/6 69/101/6
f 69/101/6 74/106/6 75/107/6 70/102/6
f 70/102/6 75/107/6 76/108/6 71/103/6
f 71/103/6 76/108/6 77/109/6 72/104/6
f 73/105/6 78/110/6 79/111/6 74/106/6
f 74/106/6 79/111/6 80/112/6 75/107/6
f 75/107/6 80/112/6 81/113/6 76/108/6
f 76/108/6 81/113/6 82/114/6 77/109/6
f 78/115/1 83/116/1 84/117/1 79/118/1
f 85/119/7 86/120/7 87/121/7 88/122/7
f 79/118/1 84/123/1 89/124/1 80/125/1
f 90/126/7 91/127/7 86/128/7 85/119/7
f 80/125/1 89/129/1 92/130/1 81/131/1
f 93/132/7 94/133/7 91/134/7 90/126/7
f 81/131/1 92/135/1 95/136/1 82/137/1
f 96/138/7 97/139/7 94/140/7 93/132/7
f 82/141/2 95/142/2 98/143/2 77/144/2
f 99/145/2 100/146/2 97/147/2 96/148/2
f 77/144/2 98/149/2 101/150/2 72/151/2
f 102/152/2 103/153/2 100/154/2 99/145/2
f 72/151/2 101/155/2 104/156/2 66/157/2
f 105/158/2 106/159/2 103/160/2 102/152/2
f 66/157/2 104/161/2 107/162/2 67/99/2
f 108/163/2 109/164/2 106/165/2 105/158/2
f 67/166/3 107/167/3 110/168/3 65/169/3
f 111/170/8 112/171/8 109/172/8 108/173/8
f 65/169/3 110/174/3 113/175/3 63/95/3
f 114/176/8 115/177/8 112/178/8 111/170/8
f 63/95/3 113/179/3 116/180/3 61/181/3
f 117/182/8 118/183/8 115/184/8 114/176/8
f 61/181/3 116/185/3 119/186/3 58/187/3
f 120/188/8 121/189/8 118/190/8 117/182/8
f 58/90/4 119/191/4 122/192/4 59/193/4
f 123/194/4 124/195/4 121/196/4 120/197/4
f 59/193/4 122/198/4 125/199/4 68/200/4
f 126/201/4 127/202/4 124/203/4 123/194/4
f 68/200/4 125/204/4 128/205/4 73/206/4
f 129/207/4 130/208/4 127/209/4 126/201/4
f 73/206/4 128/210/4 83/211/4 78/212/4
f 88/213/4 87/214/4 130/215/4 129/207/4
f 83/116/1 1/1/1 4/4/1 84/117/1
f 131/216/1 132/217/1 133/218/1 134/219/1
f 84/123/1 4/5/1 6/8/1 89/124/1
f 135/220/1 136/221/1 132/222/1 131/223/1
f 89/129/1 6/9/1 8/12/1 92/130/1
f 137/224/1 138/225/1 136/226/1 135/227/1
f 92/135/1 8/13/1 10/16/1 95/136/1
f 139/228/1 140/229/1 138/230/1 137/231/1
f 95/142/2 10/17/2 12/20/2 98/143/2
f 141/232/2 142/233/2 140/234/2 139/235/2
f 98/149/2 12/21/2 14/24/2 101/150/2
f 143/236/2 144/237/2 142/238/2 141/239/2
f 101/155/2 14/25/2 16/28/2 104/156/2
f 145/240/2 146/241/2 144/242/2 143/243/2
f 104/161/2 16/29/2 18/32/2 107/162/2
f 147/244/2 148/245/2 146/246/2 145/247/2
f 107/167/3 18/33/3 20/36/3 110/168/3
f 149/248/3 150/249/3 148/250/3 147/251/3
f 110/174/3 20/37/3 22/40/3 113/175/3
f 151/252/3 152/253/3 150/254/3 149/255/3
f 113/179/3 22/41/3 24/44/3 116/180/3
f 153/256/3 154/257/3 152/258/3 151/259/3
f 116/185/3 24/45/3 26/48/3 119/186/3
f 155/260/3 156/261/3 154/262/3 153/263/3
f 119/191/4 26/49/4 28/52/4 122/192/4
f 157/264/4 158/265/4 156/266/4 155/267/4
f 122/198/4 28/53/4 30/56/4 125/199/4
f 159/268/4 160/269/4 158/270/4 157/271/4
f 125/204/4 30/57/4 32/60/4 128/205/4
f 161/272/4 162/273/4 160/274/4 159/275/4
f 128/210/4 32/61/4 1/64/4 83/211/4
f 134/276/4 133/277/4 162/278/4 161/279/4
f 86/120/6 163/280/6 164/281/6 87/121/6
f 2/2/9 165/282/9 166/283/9 3/3/9
f 91/127/6 167/284/6 163/285/6 86/128/6
f 3/6/9 166/286/9 168/287/9 5/7/9
f 94/133/6 169/288/6 167/289/6 91/134/6
f 5/10/9 168/290/9 170/291/9 7/11/9
f 97/139/6 171/292/6 169/293/6 94/140/6
f 7/14/9 170/294/9 172/295/9 9/15/9
f 100/146/6 173/296/6 171/297/6 97/147/6
f 9/18/9 172/298/9 174/299/9 11/19/9
f 103/153/6 175/300/6 173/301/6 100/154/6
f 11/22/9 174/302/9 176/303/9 13/23/9
f 106/159/6 177/304/6 175/305/6 103/160/6
f 13/26/9 176/306/9 178/307/9 15/27/9
f 109/164/6 179/308/6 177/309/6 106/165/6
f 15/30/9 178/310/9 180/311/9 17/31/9
f 112/171/6 181/312/6 179/313/6 109/172/6
f 17/34/9 180/314/9 182/315/9 19/35/9
f 115/177/6 183/316/6 181/317/6 112/178/6
f 19/38/9 182/318/9 184/319/9 21/39/9
f 118/183/6 185/320/6 183/321/6 115/184/6
f 21/42/9 184/322/9 186/323/9 23/43/9
f 121/189/6 187/324/6 185/325/6 118/190/6
f 23/46/9 186/326/9 188/327/9 25/47/9
f 124/195/6 189/328/6 187/329/6 121/196/6
f 25/50/9 188/330/9 190/331/9 27/51/9
f 127/202/6 191/332/6 189/333/6 124/203/6
f 27/54/9 190/334/9 192/335/9 29/55/9
f 130/208/6 193/336/6 191/337/6 127/209/6
f 29/58/9 192/338/9 194/339/9 31/59/9
f 87/214/6 164/340/6 193/341/6 130/215/6
f 31/62/9 194/342/9 165/343/9 2/63/9
f 163/280/9 131/216/9 134/219/9 164/281/9
f 165/282/6 133/218/6 132/217/6 166/283/6
f 167/284/9 135/220/9 131/223/9 163/285/9
f 166/286/6 132/222/6 136/221/6 168/287/6
f 169/288/9 137/224/9 135/227/9 167/289/9
f 168/290/6 136/226/6 138/225/6 170/291/6
f 171/292/9 139/228/9 137/231/9 169/293/9
f 170/294/6 138/230/6 140/229/6 172/295/6
f 173/296/10 141/232/10 139/235/10 171/297/10
f 172/298/6 140/234/6 142/233/6 174/299/6
f 175/300/9 143/236/9 141/239/9 173/301/9
f 174/302/6 142/238/6 144/237/6 176/303/6
f 177/304/9 145/240/9 143/243/9 175/305/9
f 176/306/6 144/242/6 146/241/6 178/307/6
f 179/308/9 147/244/9 145/247/9 177/309/9
f 178/310/11 146/246/11 148/245/11 180/311/11
f 181/312/9 149/248/9 147/251/9 179/313/9
f 180/314/6 148/250/6 150/249/6 182/315/6
f 183/316/9 151/252/9 149/255/9 181/317/9
f 182/318/6 150/254/6 152/253/6 184/319/6
f 185/320/9 153/256/9 151/259/9 183/321/9
f 184/322/6 152/258/6 154/257/6 186/323/6
f 187/324/9 155/260/9 153/263/9 185/325/9
f 186/326/6 154/262/6 156/261/6 188/327/6
f 189/328/9 157/264/9 155/267/9 187/329/9
f 188/330/6 156/266/6 158/265/6 190/331/6
f 191/332/9 159/268/9 157/271/9 189/333/9
f 190/334/6 158/270/6 160/269/6 192/335/6
f 193/336/9 161/272/9 159/275/9 191/337/9
f 192/338/6 160/274/6 162/273/6 194/339/6
f 164/340/9 134/276/9 161/279/9 193/341/9
f 194/342/12 162/278/12 133/277/12 165/343/12
f 88/344/13 195/345/13 196/346/13 85/347/13
f 129/348/14 197/349/14 195/345/14 88/344/14
f 85/347/13 196/346/13 198/350/13 90/351/13
f 90/351/13 198/350/13 199/352/13 93/353/13
f 93/353/13 199/352/13 200/354/13 96/355/13
f 96/355/15 200/354/15 201/356/15 99/357/15
f 126/358/14 202/359/14 197/349/14 129/348/14
f 99/357/15 201/356/15 203/360/15 102/361/15
f 123/362/14 204/363/14 202/359/14 126/358/14
f 102/361/15 203/360/15 205/364/15 105/365/15
f 117/366/16 206/367/16 207/368/16 120/197/16
f 120/197/14 207/368/14 204/363/14 123/362/14
f 114/176/16 208/369/16 206/367/16 117/366/16
f 111/370/16 209/371/16 208/369/16 114/176/16
f 105/365/15 205/364/15 210/372/15 108/163/15
f 108/163/16 210/372/16 209/371/16 111/370/16
f 195/345/17 33/65/17 36/68/17 196/346/17
f 197/349/4 34/66/4 33/65/4 195/345/4
f 196/346/17 36/68/17 38/70/17 198/350/17
f 198/350/17 38/70/17 40/72/17 199/352/17
f 199/352/17 40/72/17 42/74/17 200/354/17
f 200/354/2 42/74/2 41/73/2 201/356/2
f 202/359/4 43/75/4 34/66/4 197/349/4
f 201/356/2 41/73/2 47/79/2 203/360/2
f 204/363/4 48/80/4 43/75/4 202/359/4
f 203/360/2 47/79/2 52/84/2 205/364/2
f 206/367/18 54/86/18 53/85/18 207/368/18
f 207/368/4 53/85/4 48/80/4 204/363/4
f 208/369/18 55/87/18 54/86/18 206/367/18
f 209/371/18 56/88/18 55/87/18 208/369/18
f 205/364/2 52/84/2 57/89/2 210/372/2
f 210/372/18 57/89/18 56/88/18 209/371/18
