# Blender v2.93.2 OBJ File: ''
# www.blender.org
mtllib building-2.mtl
o Highrise_8
v -101.477661 0.209427 -108.500046
v -101.477661 100.209427 -108.500031
v 115.522339 100.209427 -108.500031
v 115.522339 0.209427 -108.500046
v -92.977661 100.209427 -100.000031
v -92.977661 200.209427 -100.000015
v 107.022339 200.209427 -100.000015
v 107.022339 100.209427 -100.000031
v 115.522339 100.209396 108.499969
v 115.522339 0.209396 108.499954
v 107.022339 200.209396 99.999985
v 107.022339 100.209396 99.999969
v -101.477661 100.209396 108.499969
v -101.477661 0.209396 108.499954
v -92.977661 200.209396 99.999985
v -92.977661 100.209396 99.999969
v -54.289551 250.831726 -26.200005
v -54.289551 250.831696 26.199989
v -1.889526 250.831696 26.199989
v -1.889526 250.831726 -26.200005
v -92.977661 0.209396 99.999954
v -92.977661 0.209427 -100.000046
v 107.022339 0.209427 -100.000046
v 107.022339 0.209396 99.999954
v -69.777710 221.031723 -76.800018
v 83.822266 221.031723 -76.800018
v 83.822266 221.031693 76.799988
v -69.777710 221.031693 76.799988
v -64.177734 221.031723 -71.200020
v 78.222290 221.031723 -71.200020
v 78.222290 221.031693 71.199982
v -64.177734 221.031693 71.199982
v -64.177734 215.231720 -71.200020
v 78.222290 215.231720 -71.200020
v 78.222290 215.231689 71.199982
v -64.177734 215.231689 71.199982
v -54.289551 215.231705 -26.200010
v -1.889526 215.231705 -26.200010
v -1.889526 215.231705 26.199984
v -54.289551 215.231705 26.199984
vt 0.000000 0.000000
vt 0.000000 0.500000
vt 1.000000 0.500000
vt 1.000000 0.000000
vt 0.000000 0.500000
vt 0.000000 1.000000
vt 1.000000 1.000000
vt 1.000000 0.500000
vt 0.000000 0.000000
vt 0.000000 0.500000
vt 1.000000 0.500000
vt 1.000000 0.000000
vt 0.000000 0.500000
vt 0.000000 1.000000
vt 1.000000 1.000000
vt 1.000000 0.500000
vt 0.000000 0.000000
vt 0.000000 0.500000
vt 1.000000 0.500000
vt 1.000000 0.000000
vt 0.000000 0.500000
vt 0.000000 1.000000
vt 1.000000 1.000000
vt 1.000000 0.500000
vt 0.000000 0.000000
vt 0.000000 0.500000
vt 1.000000 0.500000
vt 1.000000 0.000000
vt 0.000000 0.500000
vt 0.000000 1.000000
vt 1.000000 1.000000
vt 1.000000 0.500000
vt 0.329427 0.329427
vt 0.329427 0.670573
vt 0.670573 0.670573
vt 0.670573 0.329427
vt 0.000000 0.000000
vt 0.000000 1.000000
vt 1.000000 1.000000
vt 1.000000 0.000000
vt 0.000000 0.000000
vt 1.000000 0.000000
vt 0.000000 0.000000
vt 0.000000 0.000000
vt 1.000000 0.000000
vt 1.000000 0.000000
vt 0.000000 0.000000
vt 0.000000 0.000000
vt 1.000000 0.000000
vt 1.000000 0.000000
vt 1.000000 1.000000
vt 0.000000 1.000000
vt 0.036458 0.036458
vt 0.963542 0.036458
vt 0.963542 0.963542
vt 0.036458 0.963542
vt 0.036458 0.036458
vt 0.963542 0.036458
vt 0.963542 0.963542
vt 0.036458 0.963542
vt 0.329427 0.329427
vt 0.670573 0.329427
vt 0.670573 0.670573
vt 0.329427 0.670573
vn 0.0000 0.0000 -1.0000
vn 1.0000 -0.0000 0.0000
vn 0.0000 -0.0000 1.0000
vn -1.0000 0.0000 0.0000
vn 0.0000 1.0000 0.0000
vn 0.0000 -1.0000 -0.0000
vn 0.0000 0.7442 -0.6679
vn 0.6679 0.7442 0.0000
vn 0.0000 0.7442 0.6679
vn -0.6679 0.7442 0.0000
usemtl default
s off
f 1/1/1 2/2/1 3/3/1 4/4/1
f 5/5/1 6/6/1 7/7/1 8/8/1
f 4/9/2 3/10/2 9/11/2 10/12/2
f 8/13/2 7/14/2 11/15/2 12/16/2
f 10/17/3 9/18/3 13/19/3 14/20/3
f 12/21/3 11/22/3 15/23/3 16/24/3
f 14/25/4 13/26/4 2/27/4 1/28/4
f 16/29/4 15/30/4 6/31/4 5/32/4
f 17/33/5 18/34/5 19/35/5 20/36/5
f 21/37/6 22/38/6 23/39/6 24/40/6
f 22/41/6 1/1/6 4/4/6 23/42/6
f 8/8/5 3/3/5 2/2/5 5/5/5
f 23/43/6 4/9/6 10/12/6 24/40/6
f 12/16/5 9/11/5 3/10/5 8/13/5
f 24/44/6 10/17/6 14/20/6 21/45/6
f 16/24/5 13/19/5 9/18/5 12/21/5
f 21/37/6 14/25/6 1/28/6 22/46/6
f 5/32/5 2/27/5 13/26/5 16/29/5
f 6/47/7 25/48/7 26/49/7 7/50/7
f 7/50/8 26/49/8 27/51/8 11/15/8
f 11/15/9 27/51/9 28/52/9 15/30/9
f 15/30/10 28/52/10 25/48/10 6/47/10
f 25/48/5 29/53/5 30/54/5 26/49/5
f 26/49/5 30/54/5 31/55/5 27/51/5
f 27/51/5 31/55/5 32/56/5 28/52/5
f 28/52/5 32/56/5 29/53/5 25/48/5
f 29/53/3 33/57/3 34/58/3 30/54/3
f 30/54/4 34/58/4 35/59/4 31/55/4
f 31/55/1 35/59/1 36/60/1 32/56/1
f 32/56/2 36/60/2 33/57/2 29/53/2
f 33/57/5 37/61/5 38/62/5 34/58/5
f 34/58/5 38/62/5 39/63/5 35/59/5
f 35/59/5 39/63/5 40/64/5 36/60/5
f 36/60/5 40/64/5 37/61/5 33/57/5
f 37/61/1 17/33/1 20/36/1 38/62/1
f 38/62/2 20/36/2 19/35/2 39/63/2
f 39/63/3 19/35/3 18/34/3 40/64/3
f 40/64/4 18/34/4 17/33/4 37/61/4
