# Blender v2.93.2 OBJ File: ''
# www.blender.org
mtllib building-4.mtl
o Highrise_9
v -93.800049 6.289352 -103.499985
v -93.800049 193.889343 -103.499954
v 93.799927 193.889343 -103.499954
v 93.799927 6.289352 -103.499985
v 103.499878 6.289352 -93.799980
v 103.499878 193.889343 -93.799950
v 103.499878 193.889313 93.800049
v 103.499878 6.289322 93.800018
v 93.799927 6.289322 103.500015
v 93.799927 193.889313 103.500046
v -93.800049 193.889313 103.500046
v -93.800049 6.289322 103.500015
v -103.500122 6.289322 93.800018
v -103.500122 193.889313 93.800049
v -103.500122 193.889343 -93.799950
v -103.500122 6.289352 -93.799980
v -6.000122 469.189331 -5.999907
v -6.000122 469.189331 6.000093
v 5.999878 469.189331 6.000093
v 5.999878 469.189331 -5.999907
v -100.000122 0.089325 100.000015
v -100.000122 0.089355 -99.999985
v 99.999878 0.089355 -99.999985
v 99.999878 0.089325 100.000015
v -93.800049 6.289352 -99.999985
v 93.799927 6.289352 -99.999985
v 93.799927 193.889343 -99.999954
v 99.999878 200.089355 -99.999954
v -93.800049 193.889343 -99.999954
v -100.000122 200.089355 -99.999954
v 99.999878 6.289352 -93.799980
v 99.999878 6.289322 93.800018
v 99.999878 193.889313 93.800049
v 99.999878 200.089325 100.000046
v 99.999878 193.889343 -93.799950
v 93.799927 6.289322 100.000015
v -93.800049 6.289322 100.000015
v -93.800049 193.889313 100.000046
v -100.000122 200.089325 100.000046
v 93.799927 193.889313 100.000046
v -100.000122 6.289322 93.800018
v -100.000122 6.289352 -93.799980
v -100.000122 193.889343 -93.799950
v -100.000122 193.889313 93.800049
v -97.000122 200.089355 -96.999954
v 96.999878 200.089355 -96.999954
v 96.999878 200.089325 97.000046
v -97.000122 200.089325 97.000046
v -97.000122 251.189346 -96.999947
v 96.999878 251.189346 -96.999947
v 96.999878 251.189316 97.000053
v -97.000122 251.189316 97.000053
v -90.000122 251.189346 -89.999947
v 89.999878 251.189346 -89.999947
v 89.999878 251.189316 90.000053
v -90.000122 251.189316 90.000053
v -90.000122 224.489349 -89.999947
v 89.999878 224.489349 -89.999947
v 89.999878 224.489319 90.000053
v -90.000122 224.489319 90.000053
v -78.300049 224.489349 -78.299942
v 78.299927 224.489349 -78.299942
v 78.299927 224.489319 78.300056
v -78.300049 224.489319 78.300056
v -78.300049 286.789337 -78.299934
v 78.299927 286.789337 -78.299934
v 78.299927 286.789307 78.300064
v -78.300049 286.789307 78.300064
v -72.400024 286.789337 -72.399940
v 72.399902 286.789337 -72.399940
v 72.399902 286.789307 72.400070
v -72.400024 286.789307 72.400070
v -72.400024 266.389343 -72.399940
v 72.399902 266.389343 -72.399940
v 72.399902 266.389313 72.400070
v -72.400024 266.389313 72.400070
v -63.900024 266.389343 -63.899937
v 63.899902 266.389343 -63.899937
v 63.899902 266.389313 63.900070
v -63.900024 266.389313 63.900070
v -63.900024 332.289337 -63.899929
v 63.899902 332.289337 -63.899929
v 63.899902 332.289307 63.900078
v -63.900024 332.289307 63.900078
v -13.800049 382.389343 13.800081
v -13.800049 382.389343 -13.799917
v 13.799927 382.389343 13.800081
v 13.799927 382.389343 -13.799917
v -13.800049 423.189331 -13.799911
v 13.799927 423.189331 -13.799911
v 13.799927 423.189331 13.800088
v -13.800049 423.189331 13.800088
v -6.000122 423.189331 -5.999915
v 5.999878 423.189331 -5.999915
v 5.999878 423.189331 6.000085
v -6.000122 423.189331 6.000085
v -6.000122 468.989319 -5.999907
v 5.999878 468.989319 -5.999907
v 5.999878 468.989319 6.000093
v -6.000122 468.989319 6.000093
vt 0.031000 0.031000
vt 0.031000 0.969000
vt 0.969000 0.969000
vt 0.969000 0.031000
vt 0.031000 0.031000
vt 0.031000 0.969000
vt 0.969000 0.969000
vt 0.969000 0.031000
vt 0.031000 0.031000
vt 0.031000 0.969000
vt 0.969000 0.969000
vt 0.969000 0.031000
vt 0.031000 0.031000
vt 0.031000 0.969000
vt 0.969000 0.969000
vt 0.969000 0.031000
vt 0.470000 0.470000
vt 0.470000 0.530000
vt 0.530000 0.530000
vt 0.530000 0.470000
vt 0.000000 0.000000
vt 0.000000 1.000000
vt 1.000000 1.000000
vt 1.000000 0.000000
vt 0.000000 0.000000
vt 0.031000 0.031000
vt 0.969000 0.031000
vt 1.000000 0.000000
vt 0.969000 0.969000
vt 1.000000 1.000000
vt 0.031000 0.969000
vt 0.000000 1.000000
vt 0.000000 0.000000
vt 0.031000 0.031000
vt 0.969000 0.031000
vt 0.969000 0.969000
vt 1.000000 1.000000
vt 0.031000 0.969000
vt 0.000000 1.000000
vt 0.000000 0.000000
vt 0.031000 0.031000
vt 0.969000 0.031000
vt 1.000000 0.000000
vt 0.969000 0.969000
vt 1.000000 1.000000
vt 0.031000 0.969000
vt 0.000000 1.000000
vt 0.031000 0.031000
vt 0.969000 0.031000
vt 1.000000 0.000000
vt 0.969000 0.969000
vt 1.000000 1.000000
vt 0.031000 0.969000
vt 0.000000 1.000000
vt 0.000000 0.000000
vt 0.015000 0.015000
vt 0.985000 0.015000
vt 1.000000 0.000000
vt 0.985000 0.985000
vt 0.015000 0.985000
vt 0.015000 0.015000
vt 0.985000 0.015000
vt 0.985000 0.985000
vt 0.015000 0.985000
vt 0.050000 0.050000
vt 0.950000 0.050000
vt 0.950000 0.950000
vt 0.050000 0.950000
vt 0.050000 0.050000
vt 0.950000 0.050000
vt 0.950000 0.950000
vt 0.050000 0.950000
vt 0.108500 0.108500
vt 0.891500 0.108500
vt 0.891500 0.891500
vt 0.108500 0.891500
vt 0.108500 0.108500
vt 0.891500 0.108500
vt 0.891500 0.891500
vt 0.108500 0.891500
vt 0.138000 0.138000
vt 0.862000 0.138000
vt 0.862000 0.862000
vt 0.138000 0.862000
vt 0.138000 0.138000
vt 0.862000 0.138000
vt 0.862000 0.862000
vt 0.138000 0.862000
vt 0.180500 0.180500
vt 0.819500 0.180500
vt 0.819500 0.819500
vt 0.180500 0.819500
vt 0.180500 0.180500
vt 0.819500 0.180500
vt 0.819500 0.819500
vt 0.180500 0.819500
vt 0.431000 0.569000
vt 0.431000 0.431000
vt 0.569000 0.569000
vt 0.569000 0.431000
vt 0.431000 0.431000
vt 0.569000 0.431000
vt 0.569000 0.569000
vt 0.431000 0.569000
vt 0.470000 0.470000
vt 0.530000 0.470000
vt 0.530000 0.530000
vt 0.470000 0.530000
vt 0.470000 0.470000
vt 0.530000 0.470000
vt 0.530000 0.530000
vt 0.470000 0.530000
vn 0.0000 0.0000 -1.0000
vn 1.0000 -0.0000 0.0000
vn 0.0000 -0.0000 1.0000
vn -1.0000 0.0000 0.0000
vn 0.0000 1.0000 0.0000
vn 0.0000 -1.0000 -0.0000
vn -0.7071 0.7071 0.0000
vn 0.0000 0.7071 0.7071
vn 0.7071 0.7071 0.0000
vn 0.0000 0.7071 -0.7071
usemtl default
s off
f 1/1/1 2/2/1 3/3/1 4/4/1
f 5/5/2 6/6/2 7/7/2 8/8/2
f 9/9/3 10/10/3 11/11/3 12/12/3
f 13/13/4 14/14/4 15/15/4 16/16/4
f 17/17/5 18/18/5 19/19/5 20/20/5
f 21/21/6 22/22/6 23/23/6 24/24/6
f 22/25/1 25/26/1 26/27/1 23/28/1
f 23/28/1 26/27/1 27/29/1 28/30/1
f 28/30/1 27/29/1 29/31/1 30/32/1
f 30/32/1 29/31/1 25/26/1 22/25/1
f 23/33/2 31/34/2 32/35/2 24/24/2
f 24/24/2 32/35/2 33/36/2 34/37/2
f 34/37/2 33/36/2 35/38/2 28/39/2
f 28/39/2 35/38/2 31/34/2 23/33/2
f 24/40/3 36/41/3 37/42/3 21/43/3
f 21/43/3 37/42/3 38/44/3 39/45/3
f 39/45/3 38/44/3 40/46/3 34/47/3
f 34/47/3 40/46/3 36/41/3 24/40/3
f 21/21/4 41/48/4 42/49/4 22/50/4
f 22/50/4 42/49/4 43/51/4 30/52/4
f 30/52/4 43/51/4 44/53/4 39/54/4
f 39/54/4 44/53/4 41/48/4 21/21/4
f 25/26/6 1/1/6 4/4/6 26/27/6
f 26/27/2 4/4/2 3/3/2 27/29/2
f 27/29/5 3/3/5 2/2/5 29/31/5
f 29/31/4 2/2/4 1/1/4 25/26/4
f 31/34/6 5/5/6 8/8/6 32/35/6
f 32/35/3 8/8/3 7/7/3 33/36/3
f 33/36/5 7/7/5 6/6/5 35/38/5
f 35/38/1 6/6/1 5/5/1 31/34/1
f 36/41/6 9/9/6 12/12/6 37/42/6
f 37/42/4 12/12/4 11/11/4 38/44/4
f 38/44/5 11/11/5 10/10/5 40/46/5
f 40/46/2 10/10/2 9/9/2 36/41/2
f 41/48/6 13/13/6 16/16/6 42/49/6
f 42/49/1 16/16/1 15/15/1 43/51/1
f 43/51/5 15/15/5 14/14/5 44/53/5
f 44/53/3 14/14/3 13/13/3 41/48/3
f 30/55/5 45/56/5 46/57/5 28/58/5
f 28/58/5 46/57/5 47/59/5 34/37/5
f 34/37/5 47/59/5 48/60/5 39/54/5
f 39/54/5 48/60/5 45/56/5 30/55/5
f 45/56/1 49/61/1 50/62/1 46/57/1
f 46/57/2 50/62/2 51/63/2 47/59/2
f 47/59/3 51/63/3 52/64/3 48/60/3
f 48/60/4 52/64/4 49/61/4 45/56/4
f 49/61/5 53/65/5 54/66/5 50/62/5
f 50/62/5 54/66/5 55/67/5 51/63/5
f 51/63/5 55/67/5 56/68/5 52/64/5
f 52/64/5 56/68/5 53/65/5 49/61/5
f 53/65/3 57/69/3 58/70/3 54/66/3
f 54/66/4 58/70/4 59/71/4 55/67/4
f 55/67/1 59/71/1 60/72/1 56/68/1
f 56/68/2 60/72/2 57/69/2 53/65/2
f 57/69/5 61/73/5 62/74/5 58/70/5
f 58/70/5 62/74/5 63/75/5 59/71/5
f 59/71/5 63/75/5 64/76/5 60/72/5
f 60/72/5 64/76/5 61/73/5 57/69/5
f 61/73/1 65/77/1 66/78/1 62/74/1
f 62/74/2 66/78/2 67/79/2 63/75/2
f 63/75/3 67/79/3 68/80/3 64/76/3
f 64/76/4 68/80/4 65/77/4 61/73/4
f 65/77/5 69/81/5 70/82/5 66/78/5
f 66/78/5 70/82/5 71/83/5 67/79/5
f 67/79/5 71/83/5 72/84/5 68/80/5
f 68/80/5 72/84/5 69/81/5 65/77/5
f 69/81/3 73/85/3 74/86/3 70/82/3
f 70/82/4 74/86/4 75/87/4 71/83/4
f 71/83/1 75/87/1 76/88/1 72/84/1
f 72/84/2 76/88/2 73/85/2 69/81/2
f 73/85/5 77/89/5 78/90/5 74/86/5
f 74/86/5 78/90/5 79/91/5 75/87/5
f 75/87/5 79/91/5 80/92/5 76/88/5
f 76/88/5 80/92/5 77/89/5 73/85/5
f 77/89/1 81/93/1 82/94/1 78/90/1
f 78/90/2 82/94/2 83/95/2 79/91/2
f 79/91/3 83/95/3 84/96/3 80/92/3
f 80/92/4 84/96/4 81/93/4 77/89/4
f 84/96/7 85/97/7 86/98/7 81/93/7
f 83/95/8 87/99/8 85/97/8 84/96/8
f 82/94/9 88/100/9 87/99/9 83/95/9
f 81/93/10 86/98/10 88/100/10 82/94/10
f 86/98/1 89/101/1 90/102/1 88/100/1
f 88/100/2 90/102/2 91/103/2 87/99/2
f 87/99/3 91/103/3 92/104/3 85/97/3
f 85/97/4 92/104/4 89/101/4 86/98/4
f 89/101/5 93/105/5 94/106/5 90/102/5
f 90/102/5 94/106/5 95/107/5 91/103/5
f 91/103/5 95/107/5 96/108/5 92/104/5
f 92/104/5 96/108/5 93/105/5 89/101/5
f 93/105/1 97/109/1 98/110/1 94/106/1
f 94/106/2 98/110/2 99/111/2 95/107/2
f 95/107/3 99/111/3 100/112/3 96/108/3
f 96/108/4 100/112/4 97/109/4 93/105/4
f 97/109/1 17/17/1 20/20/1 98/110/1
f 98/110/2 20/20/2 19/19/2 99/111/2
f 99/111/3 19/19/3 18/18/3 100/112/3
f 100/112/4 18/18/4 17/17/4 97/109/4
