# Blender v2.93.2 OBJ File: ''
# www.blender.org
mtllib building-10.mtl
o Highrise_7
v -80.704758 0.013550 -88.697533
v -80.704758 457.950562 -88.697456
v -38.486160 457.950562 -88.697456
v -38.486160 0.013550 -88.697533
v -38.486160 0.013550 -84.965134
v -38.486160 457.950562 -84.965057
v 0.000031 457.950562 -84.965057
v 0.000031 0.013550 -84.965134
v 38.486229 457.950562 -84.965057
v 38.486229 0.013550 -84.965134
v 38.486229 0.013550 -88.697533
v 38.486229 457.950562 -88.697456
v 80.704826 457.950562 -88.697456
v 80.704826 0.013550 -88.697533
v 80.704826 457.950531 -42.117313
v 80.704826 0.013550 -42.117390
v 76.972420 0.013550 -42.117390
v 76.972420 457.950531 -42.117313
v 76.972420 457.950531 0.730437
v 76.972420 0.013550 0.730363
v 76.972420 457.950531 43.578186
v 76.972420 0.013550 43.578110
v 80.704826 0.013550 43.578110
v 80.704826 457.950531 43.578186
v 80.704826 457.950500 90.158325
v 80.704826 0.013550 90.158249
v 38.486229 457.950500 90.158325
v 38.486229 0.013550 90.158249
v 38.486229 0.013550 86.425858
v 38.486229 457.950500 86.425934
v 0.000031 457.950500 86.425934
v 0.000031 0.013550 86.425858
v -38.486160 457.950500 86.425934
v -38.486160 0.013550 86.425858
v -38.486160 0.013550 90.158249
v -38.486160 457.950500 90.158325
v -80.704758 457.950500 90.158325
v -80.704758 0.013550 90.158249
v -80.704758 457.950531 43.578186
v -80.704758 0.013550 43.578110
v -76.972351 0.013550 43.578110
v -76.972351 457.950531 43.578186
v -76.972351 457.950531 0.730437
v -76.972351 0.013550 0.730363
v -76.972351 457.950531 -42.117313
v -76.972351 0.013550 -42.117390
v -80.704758 0.013550 -42.117390
v -80.704758 457.950531 -42.117313
v -69.627960 476.853333 -77.620659
v -69.627960 476.853302 -42.117310
v -38.486160 476.853302 -42.117310
v -38.486160 476.853333 -77.620659
v 0.000031 476.853302 -42.117310
v 0.000031 476.853333 -77.620659
v 38.486229 476.853302 -42.117310
v 38.486229 476.853333 -77.620659
v 69.628029 476.853302 -42.117310
v 69.628029 476.853333 -77.620659
v -69.627960 476.853302 0.730440
v -38.486160 476.853302 0.730440
v -38.486160 481.187714 -42.117310
v -38.486160 481.187714 0.730441
v 0.000031 481.187714 0.730441
v 0.000031 481.187714 -42.117310
v 38.486229 481.187714 0.730441
v 38.486229 481.187714 -42.117310
v 38.486229 476.853302 0.730440
v 69.628029 476.853302 0.730440
v -69.627960 476.853302 43.578190
v -38.486160 476.853302 43.578190
v 0.000031 476.853302 43.578190
v 0.000031 476.853302 0.730440
v 38.486229 476.853302 43.578190
v 69.628029 476.853302 43.578190
v -69.627960 476.853271 79.081528
v -38.486160 476.853271 79.081528
v 0.000031 476.853271 79.081528
v 38.486229 476.853271 79.081528
v 69.628029 476.853271 79.081528
v -76.972351 0.013550 86.425858
v -38.486160 0.013550 43.578110
v 0.000031 0.013550 43.578110
v 38.486229 0.013550 43.578110
v 76.972420 0.013550 86.425858
v -38.486160 0.013550 0.730363
v 0.000031 0.013550 0.730363
v 38.486229 0.013550 0.730363
v -38.486160 0.013550 -42.117390
v 0.000031 0.013550 -42.117390
v 38.486229 0.013550 -42.117390
v -76.972351 0.013550 -84.965134
v 76.972420 0.013550 -84.965134
v -61.079556 457.950531 -69.072258
v -61.079556 461.201324 -69.072258
v -38.486160 461.201324 -69.072258
v -38.486160 457.950531 -69.072258
v -61.079556 457.950531 -42.117313
v -61.079556 461.201324 -42.117313
v 0.000031 461.201324 -69.072258
v 0.000031 457.950531 -69.072258
v 38.486229 461.201324 -69.072258
v 38.486229 457.950531 -69.072258
v 61.079628 461.201324 -69.072258
v 61.079628 457.950531 -69.072258
v 61.079628 461.201324 -42.117313
v 61.079628 457.950531 -42.117313
v -61.079556 457.950531 0.730437
v -61.079556 461.201324 0.730438
v 61.079628 461.201324 0.730438
v 61.079628 457.950531 0.730437
v -61.079556 457.950531 43.578186
v -61.079556 461.201324 43.578186
v 61.079628 461.201324 43.578186
v 61.079628 457.950531 43.578186
v -38.486160 457.950500 70.533127
v -38.486160 461.201294 70.533127
v -61.079556 461.201294 70.533127
v -61.079556 457.950500 70.533127
v 0.000031 457.950500 70.533127
v 0.000031 461.201294 70.533127
v 38.486229 457.950500 70.533127
v 38.486229 461.201294 70.533127
v 61.079628 461.201294 70.533127
v 61.079628 457.950500 70.533127
v -76.972351 461.201355 -84.965057
v -76.972351 483.114136 -84.965057
v -38.486160 483.114136 -84.965057
v -38.486160 461.201355 -84.965057
v -76.972351 461.201324 -42.117313
v -76.972351 483.114105 -42.117310
v 0.000031 483.114136 -84.965057
v 0.000031 461.201355 -84.965057
v 38.486229 483.114136 -84.965057
v 38.486229 461.201355 -84.965057
v 76.972420 483.114136 -84.965057
v 76.972420 461.201355 -84.965057
v 76.972420 483.114105 -42.117310
v 76.972420 461.201324 -42.117313
v -76.972351 461.201324 0.730438
v -76.972351 483.114105 0.730441
v 76.972420 483.114105 0.730441
v 76.972420 461.201324 0.730438
v -76.972351 461.201324 43.578186
v -76.972351 483.114105 43.578190
v 76.972420 483.114105 43.578190
v 76.972420 461.201324 43.578186
v -38.486160 461.201294 86.425934
v -38.486160 483.114075 86.425934
v -76.972351 483.114075 86.425934
v -76.972351 461.201294 86.425934
v 0.000031 461.201294 86.425934
v 0.000031 483.114075 86.425934
v 38.486229 461.201294 86.425934
v 38.486229 483.114075 86.425934
v 76.972420 483.114075 86.425934
v 76.972420 461.201294 86.425934
v -69.627960 483.114136 -77.620659
v -38.486160 483.114136 -77.620659
v -69.627960 483.114105 -42.117310
v 0.000031 483.114136 -77.620659
v 38.486229 483.114136 -77.620659
v 69.628029 483.114136 -77.620659
v 69.628029 483.114105 -42.117310
v -69.627960 483.114105 0.730441
v 69.628029 483.114105 0.730441
v -69.627960 483.114105 43.578190
v 69.628029 483.114105 43.578190
v -38.486160 483.114075 79.081528
v -69.627960 483.114075 79.081528
v 0.000031 483.114075 79.081528
v 38.486229 483.114075 79.081528
v 69.628029 483.114075 79.081528
v -76.972351 457.950562 -84.965057
v 76.972420 457.950562 -84.965057
v -76.972351 457.950500 86.425934
v 76.972420 457.950500 86.425934
vt 0.000000 0.000000
vt 0.000000 1.000000
vt 0.250000 1.000000
vt 0.250000 0.000000
vt 0.250000 0.000000
vt 0.250000 1.000000
vt 0.500000 1.000000
vt 0.500000 0.000000
vt 0.750000 1.000000
vt 0.750000 0.000000
vt 0.750000 0.000000
vt 0.750000 1.000000
vt 1.000000 1.000000
vt 1.000000 0.000000
vt 0.000000 0.000000
vt 0.000000 1.000000
vt 0.250000 1.000000
vt 0.250000 0.000000
vt 0.250000 0.000000
vt 0.250000 1.000000
vt 0.500000 1.000000
vt 0.500000 0.000000
vt 0.750000 1.000000
vt 0.750000 0.000000
vt 0.750000 0.000000
vt 0.750000 1.000000
vt 1.000000 1.000000
vt 1.000000 0.000000
vt 0.000000 0.000000
vt 0.000000 1.000000
vt 0.250000 1.000000
vt 0.250000 0.000000
vt 0.250000 0.000000
vt 0.250000 1.000000
vt 0.500000 1.000000
vt 0.500000 0.000000
vt 0.750000 1.000000
vt 0.750000 0.000000
vt 0.750000 0.000000
vt 0.750000 1.000000
vt 1.000000 1.000000
vt 1.000000 0.000000
vt 0.000000 0.000000
vt 0.000000 1.000000
vt 0.250000 1.000000
vt 0.250000 0.000000
vt 0.250000 0.000000
vt 0.250000 1.000000
vt 0.500000 1.000000
vt 0.500000 0.000000
vt 0.750000 1.000000
vt 0.750000 0.000000
vt 0.750000 0.000000
vt 0.750000 1.000000
vt 1.000000 1.000000
vt 1.000000 0.000000
vt 0.045020 0.045020
vt 0.021303 0.228697
vt 0.250000 0.250000
vt 0.226283 0.023717
vt 0.273717 0.023717
vt 0.500000 0.250000
vt 0.476283 0.023717
vt 0.523717 0.023717
vt 0.750000 0.250000
vt 0.726283 0.023717
vt 0.773717 0.023717
vt 0.978697 0.228697
vt 0.954980 0.045020
vt 0.021303 0.271303
vt 0.021303 0.478697
vt 0.250000 0.500000
vt 0.250000 0.250000
vt 0.250000 0.500000
vt 0.500000 0.500000
vt 0.500000 0.250000
vt 0.750000 0.500000
vt 0.750000 0.250000
vt 0.750000 0.500000
vt 0.978697 0.478697
vt 0.978697 0.271303
vt 0.021303 0.521303
vt 0.021303 0.728697
vt 0.250000 0.750000
vt 0.500000 0.750000
vt 0.500000 0.500000
vt 0.750000 0.750000
vt 0.978697 0.728697
vt 0.978697 0.521303
vt 0.021303 0.771303
vt 0.045020 0.954980
vt 0.226283 0.976283
vt 0.273717 0.976283
vt 0.476283 0.976283
vt 0.523717 0.976283
vt 0.726283 0.976283
vt 0.773717 0.976283
vt 0.954980 0.954980
vt 0.978697 0.771303
vt 0.000000 0.000000
vt 0.000000 0.250000
vt 0.250000 0.250000
vt 0.250000 0.000000
vt 0.500000 0.250000
vt 0.750000 0.250000
vt 0.750000 0.000000
vt 1.000000 0.250000
vt 1.000000 0.000000
vt 0.000000 0.500000
vt 0.250000 0.500000
vt 0.500000 0.500000
vt 0.750000 0.500000
vt 1.000000 0.500000
vt 0.000000 0.750000
vt 0.250000 0.750000
vt 0.500000 0.750000
vt 0.750000 0.750000
vt 1.000000 0.750000
vt 0.000000 1.000000
vt 0.250000 1.000000
vt 0.500000 1.000000
vt 0.750000 1.000000
vt 1.000000 1.000000
vt 0.000000 0.000000
vt 0.000000 0.000000
vt 0.250000 0.000000
vt 0.250000 0.000000
vt 0.000000 0.250000
vt 0.000000 0.250000
vt 0.500000 0.000000
vt 0.500000 0.000000
vt 0.750000 0.000000
vt 0.750000 0.000000
vt 1.000000 0.000000
vt 1.000000 0.000000
vt 1.000000 0.250000
vt 1.000000 0.250000
vt 0.000000 0.500000
vt 0.000000 0.500000
vt 1.000000 0.500000
vt 1.000000 0.500000
vt 0.000000 0.750000
vt 0.000000 0.750000
vt 1.000000 0.750000
vt 1.000000 0.750000
vt 0.250000 1.000000
vt 0.250000 1.000000
vt 0.000000 1.000000
vt 0.000000 1.000000
vt 0.500000 1.000000
vt 0.500000 1.000000
vt 0.750000 1.000000
vt 0.750000 1.000000
vt 1.000000 1.000000
vt 1.000000 1.000000
vt 0.000000 0.000000
vt 0.000000 0.000000
vt 0.250000 0.000000
vt 0.250000 0.000000
vt 0.000000 0.250000
vt 0.000000 0.250000
vt 0.500000 0.000000
vt 0.500000 0.000000
vt 0.750000 0.000000
vt 0.750000 0.000000
vt 1.000000 0.000000
vt 1.000000 0.000000
vt 1.000000 0.250000
vt 1.000000 0.250000
vt 0.000000 0.500000
vt 0.000000 0.500000
vt 1.000000 0.500000
vt 1.000000 0.500000
vt 0.000000 0.750000
vt 0.000000 0.750000
vt 1.000000 0.750000
vt 1.000000 0.750000
vt 0.250000 1.000000
vt 0.250000 1.000000
vt 0.000000 1.000000
vt 0.000000 1.000000
vt 0.500000 1.000000
vt 0.500000 1.000000
vt 0.750000 1.000000
vt 0.750000 1.000000
vt 1.000000 1.000000
vt 1.000000 1.000000
vt 0.045020 0.045020
vt 0.226283 0.023717
vt 0.021303 0.228697
vt 0.273717 0.023717
vt 0.476283 0.023717
vt 0.523717 0.023717
vt 0.726283 0.023717
vt 0.773717 0.023717
vt 0.954980 0.045020
vt 0.978697 0.228697
vt 0.021303 0.478697
vt 0.021303 0.271303
vt 0.978697 0.271303
vt 0.978697 0.478697
vt 0.021303 0.728697
vt 0.021303 0.521303
vt 0.978697 0.521303
vt 0.978697 0.728697
vt 0.226283 0.976283
vt 0.045020 0.954980
vt 0.021303 0.771303
vt 0.476283 0.976283
vt 0.273717 0.976283
vt 0.726283 0.976283
vt 0.523717 0.976283
vt 0.978697 0.771303
vt 0.954980 0.954980
vt 0.773717 0.976283
vt 0.000000 0.000000
vt 0.250000 0.000000
vt 0.000000 0.250000
vt 0.500000 0.000000
vt 0.750000 0.000000
vt 1.000000 0.000000
vt 1.000000 0.250000
vt 0.000000 0.500000
vt 1.000000 0.500000
vt 0.000000 0.750000
vt 1.000000 0.750000
vt 0.250000 1.000000
vt 0.000000 1.000000
vt 0.750000 1.000000
vt 1.000000 1.000000
vt 0.000000 0.000000
vt 0.000000 1.000000
vt 1.000000 0.000000
vt 1.000000 1.000000
vt 1.000000 0.000000
vt 1.000000 1.000000
vt 0.000000 0.000000
vt 0.000000 1.000000
vt 0.000000 0.000000
vt 0.000000 1.000000
vt 1.000000 0.000000
vt 1.000000 1.000000
vn 0.0000 0.0000 -1.0000
vn 1.0000 0.0000 0.0000
vn 0.0000 -0.0000 1.0000
vn -1.0000 -0.0000 0.0000
vn 0.0000 1.0000 0.0000
vn 0.0000 -1.0000 0.0000
usemtl default
s off
f 1/1/1 2/2/1 3/3/1 4/4/1
f 5/5/1 6/6/1 7/7/1 8/8/1
f 8/8/1 7/7/1 9/9/1 10/10/1
f 11/11/1 12/12/1 13/13/1 14/14/1
f 14/15/2 13/16/2 15/17/2 16/18/2
f 17/19/2 18/20/2 19/21/2 20/22/2
f 20/22/2 19/21/2 21/23/2 22/24/2
f 23/25/2 24/26/2 25/27/2 26/28/2
f 26/29/3 25/30/3 27/31/3 28/32/3
f 29/33/3 30/34/3 31/35/3 32/36/3
f 32/36/3 31/35/3 33/37/3 34/38/3
f 35/39/3 36/40/3 37/41/3 38/42/3
f 38/43/4 37/44/4 39/45/4 40/46/4
f 41/47/4 42/48/4 43/49/4 44/50/4
f 44/50/4 43/49/4 45/51/4 46/52/4
f 47/53/4 48/54/4 2/55/4 1/56/4
f 49/57/5 50/58/5 51/59/5 52/60/5
f 52/61/5 51/59/5 53/62/5 54/63/5
f 54/64/5 53/62/5 55/65/5 56/66/5
f 56/67/5 55/65/5 57/68/5 58/69/5
f 50/70/5 59/71/5 60/72/5 51/59/5
f 61/73/5 62/74/5 63/75/5 64/76/5
f 64/76/5 63/75/5 65/77/5 66/78/5
f 55/65/5 67/79/5 68/80/5 57/81/5
f 59/82/5 69/83/5 70/84/5 60/72/5
f 60/72/5 70/84/5 71/85/5 72/86/5
f 72/86/5 71/85/5 73/87/5 67/79/5
f 67/79/5 73/87/5 74/88/5 68/89/5
f 69/90/5 75/91/5 76/92/5 70/84/5
f 70/84/5 76/93/5 77/94/5 71/85/5
f 71/85/5 77/95/5 78/96/5 73/87/5
f 73/87/5 78/97/5 79/98/5 74/99/5
f 80/100/6 41/101/6 81/102/6 34/103/6
f 34/103/6 81/102/6 82/104/6 32/36/6
f 32/36/6 82/104/6 83/105/6 29/106/6
f 29/106/6 83/105/6 22/107/6 84/108/6
f 41/101/6 44/109/6 85/110/6 81/102/6
f 81/102/6 85/110/6 86/111/6 82/104/6
f 82/104/6 86/111/6 87/112/6 83/105/6
f 83/105/6 87/112/6 20/113/6 22/107/6
f 44/109/6 46/114/6 88/115/6 85/110/6
f 85/110/6 88/115/6 89/116/6 86/111/6
f 86/111/6 89/116/6 90/117/6 87/112/6
f 87/112/6 90/117/6 17/118/6 20/113/6
f 46/114/6 91/119/6 5/120/6 88/115/6
f 88/115/6 5/120/6 8/121/6 89/116/6
f 89/116/6 8/121/6 10/122/6 90/117/6
f 90/117/6 10/122/6 92/123/6 17/118/6
f 93/124/1 94/125/1 95/126/1 96/127/1
f 97/128/4 98/129/4 94/125/4 93/124/4
f 96/127/1 95/126/1 99/130/1 100/131/1
f 100/131/1 99/130/1 101/132/1 102/133/1
f 102/133/1 101/132/1 103/134/1 104/135/1
f 104/135/2 103/134/2 105/136/2 106/137/2
f 107/138/4 108/139/4 98/129/4 97/128/4
f 106/137/2 105/136/2 109/140/2 110/141/2
f 111/142/4 112/143/4 108/139/4 107/138/4
f 110/141/2 109/140/2 113/144/2 114/145/2
f 115/146/3 116/147/3 117/148/3 118/149/3
f 118/149/4 117/148/4 112/143/4 111/142/4
f 119/150/3 120/151/3 116/147/3 115/146/3
f 121/152/3 122/153/3 120/151/3 119/150/3
f 114/145/2 113/144/2 123/154/2 124/155/2
f 124/155/3 123/154/3 122/153/3 121/152/3
f 125/156/1 126/157/1 127/158/1 128/159/1
f 129/160/4 130/161/4 126/157/4 125/156/4
f 128/159/1 127/158/1 131/162/1 132/163/1
f 132/163/1 131/162/1 133/164/1 134/165/1
f 134/165/1 133/164/1 135/166/1 136/167/1
f 136/167/2 135/166/2 137/168/2 138/169/2
f 139/170/4 140/171/4 130/161/4 129/160/4
f 138/169/2 137/168/2 141/172/2 142/173/2
f 143/174/4 144/175/4 140/171/4 139/170/4
f 142/173/2 141/172/2 145/176/2 146/177/2
f 147/178/3 148/179/3 149/180/3 150/181/3
f 150/181/4 149/180/4 144/175/4 143/174/4
f 151/182/3 152/183/3 148/179/3 147/178/3
f 153/184/3 154/185/3 152/183/3 151/182/3
f 146/177/2 145/176/2 155/186/2 156/187/2
f 156/187/3 155/186/3 154/185/3 153/184/3
f 126/157/5 157/188/5 158/189/5 127/158/5
f 130/161/5 159/190/5 157/188/5 126/157/5
f 127/158/5 158/191/5 160/192/5 131/162/5
f 131/162/5 160/193/5 161/194/5 133/164/5
f 133/164/5 161/195/5 162/196/5 135/166/5
f 135/166/5 162/196/5 163/197/5 137/168/5
f 140/171/5 164/198/5 159/199/5 130/161/5
f 137/168/5 163/200/5 165/201/5 141/172/5
f 144/175/5 166/202/5 164/203/5 140/171/5
f 141/172/5 165/204/5 167/205/5 145/176/5
f 148/179/5 168/206/5 169/207/5 149/180/5
f 149/180/5 169/207/5 166/208/5 144/175/5
f 152/183/5 170/209/5 168/210/5 148/179/5
f 154/185/5 171/211/5 170/212/5 152/183/5
f 145/176/5 167/213/5 172/214/5 155/186/5
f 155/186/5 172/214/5 171/215/5 154/185/5
f 157/188/3 49/57/3 52/60/3 158/189/3
f 159/190/2 50/58/2 49/57/2 157/188/2
f 158/191/3 52/61/3 54/63/3 160/192/3
f 160/193/3 54/64/3 56/66/3 161/194/3
f 161/195/3 56/67/3 58/69/3 162/196/3
f 162/196/4 58/69/4 57/68/4 163/197/4
f 164/198/2 59/71/2 50/70/2 159/199/2
f 163/200/4 57/81/4 68/80/4 165/201/4
f 166/202/2 69/83/2 59/82/2 164/203/2
f 165/204/4 68/89/4 74/88/4 167/205/4
f 168/206/1 76/92/1 75/91/1 169/207/1
f 169/207/2 75/91/2 69/90/2 166/208/2
f 170/209/1 77/94/1 76/93/1 168/210/1
f 171/211/1 78/96/1 77/95/1 170/212/1
f 167/213/4 74/99/4 79/98/4 172/214/4
f 172/214/1 79/98/1 78/97/1 171/215/1
f 173/216/5 93/124/5 96/127/5 6/217/5
f 128/159/6 95/126/6 94/125/6 125/156/6
f 45/218/5 97/128/5 93/124/5 173/216/5
f 125/156/6 94/125/6 98/129/6 129/160/6
f 6/217/5 96/127/5 100/131/5 7/219/5
f 132/163/6 99/130/6 95/126/6 128/159/6
f 7/219/5 100/131/5 102/133/5 9/220/5
f 134/165/6 101/132/6 99/130/6 132/163/6
f 9/220/5 102/133/5 104/135/5 174/221/5
f 136/167/6 103/134/6 101/132/6 134/165/6
f 174/221/5 104/135/5 106/137/5 18/222/5
f 138/169/6 105/136/6 103/134/6 136/167/6
f 43/223/5 107/138/5 97/128/5 45/218/5
f 129/160/6 98/129/6 108/139/6 139/170/6
f 18/222/5 106/137/5 110/141/5 19/224/5
f 142/173/6 109/140/6 105/136/6 138/169/6
f 42/225/5 111/142/5 107/138/5 43/223/5
f 139/170/6 108/139/6 112/143/6 143/174/6
f 19/224/5 110/141/5 114/145/5 21/226/5
f 146/177/6 113/144/6 109/140/6 142/173/6
f 33/227/5 115/146/5 118/149/5 175/228/5
f 150/181/6 117/148/6 116/147/6 147/178/6
f 175/228/5 118/149/5 111/142/5 42/225/5
f 143/174/6 112/143/6 117/148/6 150/181/6
f 31/35/5 119/150/5 115/146/5 33/227/5
f 147/178/6 116/147/6 120/151/6 151/182/6
f 30/229/5 121/152/5 119/150/5 31/35/5
f 151/182/6 120/151/6 122/153/6 153/184/6
f 21/226/5 114/145/5 124/155/5 176/230/5
f 156/187/6 123/154/6 113/144/6 146/177/6
f 176/230/5 124/155/5 121/152/5 30/229/5
f 153/184/6 122/153/6 123/154/6 156/187/6
f 91/231/6 1/1/6 4/4/6 5/5/6
f 5/5/2 4/4/2 3/3/2 6/6/2
f 6/6/5 3/3/5 2/2/5 173/232/5
f 46/52/6 47/53/6 1/56/6 91/233/6
f 173/234/5 2/55/5 48/54/5 45/51/5
f 45/51/3 48/54/3 47/53/3 46/52/3
f 10/10/6 11/11/6 14/14/6 92/235/6
f 174/236/5 13/13/5 12/12/5 9/9/5
f 9/9/4 12/12/4 11/11/4 10/10/4
f 92/237/6 14/15/6 16/18/6 17/19/6
f 17/19/3 16/18/3 15/17/3 18/20/3
f 18/20/5 15/17/5 13/16/5 174/238/5
f 22/24/6 23/25/6 26/28/6 84/108/6
f 176/230/5 25/27/5 24/26/5 21/23/5
f 21/23/1 24/26/1 23/25/1 22/24/1
f 84/239/6 26/29/6 28/32/6 29/33/6
f 29/33/4 28/32/4 27/31/4 30/34/4
f 30/34/5 27/31/5 25/30/5 176/240/5
f 34/38/6 35/39/6 38/42/6 80/241/6
f 175/242/5 37/41/5 36/40/5 33/37/5
f 33/37/2 36/40/2 35/39/2 34/38/2
f 80/100/6 38/43/6 40/46/6 41/47/6
f 41/47/1 40/46/1 39/45/1 42/48/1
f 42/48/5 39/45/5 37/44/5 175/228/5
f 51/59/1 61/73/1 64/76/1 53/62/1
f 72/86/3 63/75/3 62/74/3 60/72/3
f 60/72/4 62/74/4 61/73/4 51/59/4
f 53/62/1 64/76/1 66/78/1 55/65/1
f 55/65/2 66/78/2 65/77/2 67/79/2
f 67/79/3 65/77/3 63/75/3 72/86/3
