# Blender v2.93.2 OBJ File: ''
# www.blender.org
mtllib building-3.mtl
o Highrise_4
v -39.989746 35.839661 -37.300041
v -39.989746 441.294159 -37.299976
v 39.989990 441.294159 -37.299976
v 39.989990 35.839661 -37.300041
v 74.824463 23.839661 -53.300041
v 74.824463 453.294189 -53.299973
v 74.824463 453.294128 53.300030
v 74.824463 23.839661 53.299961
v 39.989990 35.839661 37.299961
v 39.989990 441.294159 37.300026
v -39.989746 441.294159 37.300026
v -39.989746 35.839661 37.299961
v -74.824219 23.839661 53.299961
v -74.824219 453.294128 53.300030
v -74.824219 453.294189 -53.299973
v -74.824219 23.839661 -53.300041
v -48.924194 477.094147 -27.399969
v -48.924194 477.094147 27.400032
v 48.924438 477.094147 27.400032
v 48.924438 477.094147 -27.399969
v -71.224243 0.039673 49.699951
v -71.224243 0.039673 -49.700047
v 71.224487 0.039673 -49.700047
v 71.224487 0.039673 49.699951
v -71.224243 477.094177 -49.699970
v -65.624146 477.094147 -44.099972
v 65.624512 477.094147 -44.099972
v 71.224487 477.094177 -49.699970
v 65.624512 477.094147 44.100029
v 71.224487 477.094116 49.700027
v -65.624146 477.094147 44.100029
v -71.224243 477.094116 49.700027
v -65.624146 470.794159 -44.099972
v 65.624512 470.794159 -44.099972
v 65.624512 470.794159 44.100029
v -65.624146 470.794159 44.100029
v -71.224243 19.139679 -49.700047
v 71.224487 19.139679 -49.700047
v 71.224487 457.994141 -49.699974
v -71.224243 457.994141 -49.699974
v 71.224487 19.139679 49.699951
v 71.224487 457.994141 49.700024
v -71.224243 19.139679 49.699951
v -71.224243 457.994141 49.700024
v -71.224243 23.839661 -49.700043
v 71.224487 23.839661 -49.700043
v 66.024414 457.994141 -44.499973
v 66.024414 453.294159 -44.499973
v -66.024170 453.294159 -44.499973
v -66.024170 457.994141 -44.499973
v 71.224487 23.839661 49.699955
v 66.024414 457.994141 44.500027
v 66.024414 453.294159 44.500027
v -71.224243 23.839661 49.699955
v -66.024170 457.994141 44.500027
v -66.024170 453.294159 44.500027
v 71.224487 453.294189 -49.699974
v -71.224243 453.294189 -49.699974
v 71.224487 453.294128 49.700024
v -71.224243 453.294128 49.700024
v -48.924194 470.794159 -27.399971
v 48.924438 470.794159 -27.399971
v 48.924438 470.794159 27.400030
v -48.924194 470.794159 27.400030
v -39.989746 35.839661 -53.300041
v 39.989990 35.839661 -53.300041
v 39.989990 441.294159 -53.299976
v -39.989746 441.294159 -53.299976
v 39.989990 35.839661 53.299961
v -39.989746 35.839661 53.299961
v -39.989746 441.294159 53.300026
v 39.989990 441.294159 53.300026
vt 0.076262 0.076262
vt 0.076262 0.923738
vt 0.923738 0.923738
vt 0.923738 0.076262
vt 0.047777 0.047777
vt 0.047777 0.952223
vt 0.952223 0.952223
vt 0.952223 0.047777
vt 0.076262 0.076262
vt 0.076262 0.923738
vt 0.923738 0.923738
vt 0.923738 0.076262
vt 0.047777 0.047777
vt 0.047777 0.952223
vt 0.952223 0.952223
vt 0.952223 0.047777
vt 0.178290 0.178290
vt 0.178290 0.821710
vt 0.821710 0.821710
vt 0.821710 0.178290
vt 0.000000 0.000000
vt 0.000000 1.000000
vt 1.000000 1.000000
vt 1.000000 0.000000
vt 0.000000 0.000000
vt 0.044888 0.044888
vt 0.955112 0.044888
vt 1.000000 0.000000
vt 0.955112 0.955112
vt 1.000000 1.000000
vt 0.044888 0.955112
vt 0.000000 1.000000
vt 0.044888 0.044888
vt 0.955112 0.044888
vt 0.955112 0.955112
vt 0.044888 0.955112
vt 0.000000 0.000000
vt 0.036760 0.036760
vt 0.963240 0.036760
vt 1.000000 0.000000
vt 1.000000 1.000000
vt 0.963240 0.963240
vt 0.036760 0.963240
vt 0.000000 1.000000
vt 0.000000 0.000000
vt 0.038371 0.038371
vt 0.961629 0.038371
vt 0.961629 0.961629
vt 0.038371 0.961629
vt 0.000000 1.000000
vt 0.000000 0.000000
vt 0.036760 0.036760
vt 0.963240 0.036760
vt 1.000000 0.000000
vt 1.000000 1.000000
vt 0.963240 0.963240
vt 0.036760 0.963240
vt 0.000000 1.000000
vt 0.038371 0.038371
vt 0.961629 0.038371
vt 1.000000 0.000000
vt 1.000000 1.000000
vt 0.961629 0.961629
vt 0.038371 0.961629
vt 0.045736 0.045736
vt 0.954264 0.045736
vt 0.963240 0.963240
vt 0.954264 0.954264
vt 0.045736 0.954264
vt 0.036760 0.963240
vt 0.047777 0.047777
vt 0.952223 0.047777
vt 0.961629 0.961629
vt 0.952223 0.952223
vt 0.047777 0.952223
vt 0.038371 0.961629
vt 0.045736 0.045736
vt 0.954264 0.045736
vt 0.963240 0.963240
vt 0.954264 0.954264
vt 0.045736 0.954264
vt 0.036760 0.963240
vt 0.047777 0.047777
vt 0.952223 0.047777
vt 0.961629 0.961629
vt 0.952223 0.952223
vt 0.047777 0.952223
vt 0.038371 0.961629
vt 0.045736 0.045736
vt 0.954264 0.045736
vt 0.954264 0.954264
vt 0.954264 0.954264
vt 0.045736 0.954264
vt 0.045736 0.954264
vt 0.952223 0.952223
vt 0.047777 0.952223
vt 0.045736 0.045736
vt 0.954264 0.045736
vt 0.954264 0.954264
vt 0.954264 0.954264
vt 0.045736 0.954264
vt 0.045736 0.954264
vt 0.952223 0.952223
vt 0.047777 0.952223
vt 0.178290 0.178290
vt 0.821710 0.178290
vt 0.821710 0.821710
vt 0.178290 0.821710
vt 0.076262 0.076262
vt 0.923738 0.076262
vt 0.923738 0.923738
vt 0.076262 0.923738
vt 0.076262 0.076262
vt 0.923738 0.076262
vt 0.923738 0.923738
vt 0.076262 0.923738
vn 0.0000 0.0000 -1.0000
vn 1.0000 -0.0000 0.0000
vn 0.0000 -0.0000 1.0000
vn -1.0000 0.0000 0.0000
vn 0.0000 1.0000 0.0000
vn 0.0000 -1.0000 0.0000
usemtl default
s off
f 1/1/1 2/2/1 3/3/1 4/4/1
f 5/5/2 6/6/2 7/7/2 8/8/2
f 9/9/3 10/10/3 11/11/3 12/12/3
f 13/13/4 14/14/4 15/15/4 16/16/4
f 17/17/5 18/18/5 19/19/5 20/20/5
f 21/21/6 22/22/6 23/23/6 24/24/6
f 25/25/5 26/26/5 27/27/5 28/28/5
f 28/28/5 27/27/5 29/29/5 30/30/5
f 30/30/5 29/29/5 31/31/5 32/32/5
f 32/32/5 31/31/5 26/26/5 25/25/5
f 26/26/3 33/33/3 34/34/3 27/27/3
f 27/27/4 34/34/4 35/35/4 29/29/4
f 29/29/1 35/35/1 36/36/1 31/31/1
f 31/31/2 36/36/2 33/33/2 26/26/2
f 22/37/1 37/38/1 38/39/1 23/40/1
f 28/41/1 39/42/1 40/43/1 25/44/1
f 23/45/2 38/46/2 41/47/2 24/24/2
f 30/30/2 42/48/2 39/49/2 28/50/2
f 24/51/3 41/52/3 43/53/3 21/54/3
f 32/55/3 44/56/3 42/57/3 30/58/3
f 21/21/4 43/59/4 37/60/4 22/61/4
f 25/62/4 40/63/4 44/64/4 32/32/4
f 37/38/1 45/65/1 46/66/1 38/39/1
f 47/67/1 48/68/1 49/69/1 50/70/1
f 38/46/2 46/71/2 51/72/2 41/47/2
f 52/73/2 53/74/2 48/75/2 47/76/2
f 41/52/3 51/77/3 54/78/3 43/53/3
f 55/79/3 56/80/3 53/81/3 52/82/3
f 43/59/4 54/83/4 45/84/4 37/60/4
f 50/85/4 49/86/4 56/87/4 55/88/4
f 45/65/6 16/89/6 5/90/6 46/66/6
f 57/91/5 6/92/5 15/93/5 58/94/5
f 46/71/6 5/5/6 8/8/6 51/72/6
f 59/95/5 7/7/5 6/6/5 57/96/5
f 51/77/6 8/97/6 13/98/6 54/78/6
f 60/99/5 14/100/5 7/101/5 59/102/5
f 54/83/6 13/13/6 16/16/6 45/84/6
f 58/103/5 15/15/5 14/14/5 60/104/5
f 39/42/6 47/67/6 50/70/6 40/43/6
f 58/94/5 49/69/5 48/68/5 57/91/5
f 42/48/6 52/73/6 47/76/6 39/49/6
f 57/96/5 48/75/5 53/74/5 59/95/5
f 44/56/6 55/79/6 52/82/6 42/57/6
f 59/102/5 53/81/5 56/80/5 60/99/5
f 40/63/6 50/85/6 55/88/6 44/64/6
f 60/104/5 56/87/5 49/86/5 58/103/5
f 33/33/5 61/105/5 62/106/5 34/34/5
f 34/34/5 62/106/5 63/107/5 35/35/5
f 35/35/5 63/107/5 64/108/5 36/36/5
f 36/36/5 64/108/5 61/105/5 33/33/5
f 61/105/1 17/17/1 20/20/1 62/106/1
f 62/106/2 20/20/2 19/19/2 63/107/2
f 63/107/3 19/19/3 18/18/3 64/108/3
f 64/108/4 18/18/4 17/17/4 61/105/4
f 16/89/1 65/109/1 66/110/1 5/90/1
f 5/90/1 66/110/1 67/111/1 6/92/1
f 6/92/1 67/111/1 68/112/1 15/93/1
f 15/93/1 68/112/1 65/109/1 16/89/1
f 8/97/3 69/113/3 70/114/3 13/98/3
f 13/98/3 70/114/3 71/115/3 14/100/3
f 14/100/3 71/115/3 72/116/3 7/101/3
f 7/101/3 72/116/3 69/113/3 8/97/3
f 65/109/5 1/1/5 4/4/5 66/110/5
f 66/110/4 4/4/4 3/3/4 67/111/4
f 67/111/6 3/3/6 2/2/6 68/112/6
f 68/112/2 2/2/2 1/1/2 65/109/2
f 69/113/5 9/9/5 12/12/5 70/114/5
f 70/114/2 12/12/2 11/11/2 71/115/2
f 71/115/6 11/11/6 10/10/6 72/116/6
f 72/116/4 10/10/4 9/9/4 69/113/4
